<?xml version="1.0" encoding="UTF-8" standalone="no"?>
<!-- Created with Inkscape (http://www.inkscape.org/) -->

<svg
   width="24"
   height="24"
   viewBox="0 0 24 24"
   version="1.1"
   id="svg1"
   xml:space="preserve"
   xmlns:xlink="http://www.w3.org/1999/xlink"
   xmlns="http://www.w3.org/2000/svg"
   xmlns:svg="http://www.w3.org/2000/svg"><defs
     id="defs1"><linearGradient
       id="linearGradient75"><stop
         style="stop-color:#3a3b40;stop-opacity:0.75;"
         offset="0"
         id="stop75" /><stop
         style="stop-color:#e9eef1;stop-opacity:0;"
         offset="0.5"
         id="stop76" /></linearGradient><linearGradient
       xlink:href="#linearGradient75"
       id="linearGradient76"
       x1="-53.282219"
       y1="-18.765497"
       x2="-53.282219"
       y2="-127.89862"
       gradientUnits="userSpaceOnUse" /></defs><g
     id="layer2"
     style="opacity:1;stroke-width:1.09582"
     transform="matrix(0.90994876,0,0,0.9151602,1.3239269,1.269753)"><g
       id="g70"
       transform="matrix(0.20217144,0,0,0.20025173,22.504752,26.409865)"
       style="stroke-width:5.44615"><path
         d="m 3.7930309,-89.860278 -80.4539639,9.112988 v 39.742871 5.96079 l 32.565364,-3.690013 v -5.96079 l 15.323236,-1.735096 v 5.96079 l 32.5653639,-3.690013 v -5.96079 z"
         style="fill:#dee2e6;fill-rule:evenodd;stroke:#adb5bd;stroke-width:2.72311;stroke-linecap:round;stroke-linejoin:round;stroke-dasharray:none"
         id="path67" /><path
         d="m -29.905639,-111.62047 -80.451821,9.11512 33.696527,21.75806 80.4539639,-9.112988 z"
         style="fill:#e9eef1;fill-rule:evenodd;stroke:#adb5bd;stroke-width:2.72311;stroke-linecap:round;stroke-linejoin:round;stroke-dasharray:none"
         id="path68" /><path
         d="m -110.35746,-102.50535 v 39.740738 5.96079 l 13.638307,8.807799 v -5.96079 l 6.419918,4.144595 v 5.960791 l 13.638302,8.807798 v -5.96079 -39.742871 z"
         style="fill:#d1d5d9;fill-rule:evenodd;stroke:#adb5bd;stroke-width:2.72311;stroke-linecap:round;stroke-linejoin:round;stroke-dasharray:none"
         id="path66" /><path
         d="m -28.772333,-40.468738 v -5.96079 l -7.853722,0.889957 z"
         style="fill:#dee2e6;fill-rule:evenodd;stroke:#adb5bd;stroke-width:2.72311;stroke-linecap:round;stroke-linejoin:round;stroke-dasharray:none"
         id="path69" /><path
         d="m -90.299235,-48.723781 v -1.088437 l -6.419918,-4.144595 v 5.96079 z"
         style="fill:#dee2e6;fill-rule:evenodd;stroke:#adb5bd;stroke-width:2.72311;stroke-linecap:round;stroke-linejoin:round;stroke-dasharray:none"
         id="path70" /><path
         id="path71"
         style="fill:url(#linearGradient76);fill-rule:evenodd;stroke:#3a3b40;stroke-width:5.44621;stroke-linecap:round;stroke-linejoin:round;stroke-dasharray:none;fill-opacity:1"
         d="m -29.91029,-111.61677 -80.44339,9.11343 v 39.741192 5.961179 l 13.635354,8.801322 6.418466,-0.728241 v 4.879219 l 13.635351,8.801322 32.569306,-3.682822 v -5.961179 l 7.476113,-0.84268 7.8494,5.066482 32.5589373,-3.693226 v -5.961179 -39.741194 z" /></g></g></svg>
