<?xml version="1.0" encoding="UTF-8" standalone="no"?>
<!-- Created with Inkscape (http://www.inkscape.org/) -->

<svg
   width="24"
   height="24"
   viewBox="0 0 24 24"
   version="1.1"
   id="svg1"
   xml:space="preserve"
   xmlns:xlink="http://www.w3.org/1999/xlink"
   xmlns="http://www.w3.org/2000/svg"
   xmlns:svg="http://www.w3.org/2000/svg"><defs
     id="defs1"><linearGradient
       id="linearGradient75"><stop
         style="stop-color:#3a3b40;stop-opacity:0.75;"
         offset="0"
         id="stop75" /><stop
         style="stop-color:#e9eef1;stop-opacity:0;"
         offset="0.5"
         id="stop76" /></linearGradient><linearGradient
       xlink:href="#linearGradient75"
       id="linearGradient189"
       gradientUnits="userSpaceOnUse"
       x1="-31.813486"
       y1="-18.441862"
       x2="-31.813635"
       y2="-185.68123" /><linearGradient
       xlink:href="#linearGradient75"
       id="linearGradient189-6"
       gradientUnits="userSpaceOnUse"
       x1="-31.813486"
       y1="-18.441862"
       x2="-31.813635"
       y2="-185.68123" /></defs><g
     id="layer2"
     style="display:inline;opacity:1;stroke-width:1.09582"
     transform="matrix(0.90994876,0,0,0.9151602,1.3239269,1.269753)"><g
       id="g181"
       transform="matrix(0.11786044,0,0,0.11473186,15.48216,23.434703)"
       style="display:inline;stroke-width:9.4236"><path
         d="m 26.0625,-151.22852 -146.41602,16.68165 61.328129,39.826167 73.207032,-8.341797 -30.664063,-19.91211 73.208984,-8.3418 z"
         style="fill:#e9eef1;fill-rule:evenodd;stroke:#adb5bd;stroke-width:4.7118;stroke-linecap:round;stroke-linejoin:round;stroke-dasharray:none"
         id="path174" /><path
         d="m 14.181641,-103.0625 -73.207032,8.341797 v 36.369141 5.457031 l 29.63086,-3.376953 v -5.455078 l 13.945312,-1.587891 v 5.455078 l 29.63086,-3.376953 v -5.455078 -23.408203 z"
         style="fill:#dee2e6;fill-rule:evenodd;stroke:#adb5bd;stroke-width:4.7118;stroke-linecap:round;stroke-linejoin:round;stroke-dasharray:none"
         id="path175" /><path
         d="m 56.726562,-131.31641 -73.208984,8.3418 30.664063,19.91211 v 12.962891 l 12.912109,-1.470703 v 5.455078 l 29.632812,-3.375 v -5.455078 z"
         style="fill:#dee2e6;fill-rule:evenodd;stroke:#adb5bd;stroke-width:4.7118;stroke-linecap:round;stroke-linejoin:round;stroke-dasharray:none"
         id="path176" /><path
         d="m -120.35352,-134.54687 v 36.369136 5.455078 l 12.41211,8.060547 v -5.455078 l 5.83985,3.792968 v 5.455078 l 24.824216,16.121094 v -5.455078 l 5.839844,3.792969 v 5.455078 l 12.412109,8.060547 v -5.457031 -36.369141 z"
         style="fill:#d1d5d9;fill-rule:evenodd;stroke:#adb5bd;stroke-width:4.7118;stroke-linecap:round;stroke-linejoin:round;stroke-dasharray:none"
         id="path178" /><path
         d="m 27.09375,-86.115234 v -5.455078 l -7.146484,0.814453 z"
         style="fill:#dee2e6;fill-rule:evenodd;stroke:#adb5bd;stroke-width:4.7118;stroke-linecap:round;stroke-linejoin:round;stroke-dasharray:none"
         id="path177" /><path
         d="m -15.449219,-57.859375 v -5.457031 l -7.146484,0.814453 z"
         style="fill:#dee2e6;fill-rule:evenodd;stroke:#adb5bd;stroke-width:4.7118;stroke-linecap:round;stroke-linejoin:round;stroke-dasharray:none"
         id="path181" /><path
         d="m -71.4375,-65.414062 v -0.996094 l -5.839844,-3.792969 v 5.455078 z"
         style="fill:#dee2e6;fill-rule:evenodd;stroke:#adb5bd;stroke-width:4.7118;stroke-linecap:round;stroke-linejoin:round;stroke-dasharray:none"
         id="path180" /><path
         d="m -102.10156,-85.326172 v -0.998047 l -5.83985,-3.792968 v 5.455078 z"
         style="fill:#dee2e6;fill-rule:evenodd;stroke:#adb5bd;stroke-width:4.7118;stroke-linecap:round;stroke-linejoin:round;stroke-dasharray:none"
         id="path179" /><path
         id="path182"
         style="font-variation-settings:normal;display:inline;opacity:1;vector-effect:none;fill:url(#linearGradient189);fill-opacity:1;fill-rule:evenodd;stroke:#3a3b40;stroke-width:9.42362;stroke-linecap:round;stroke-linejoin:round;stroke-miterlimit:4;stroke-dasharray:none;stroke-dashoffset:0;stroke-opacity:1;-inkscape-stroke:none;stop-color:#000000;stop-opacity:1"
         d="m 26.065714,-151.23594 -146.419234,16.69673 v 36.353407 5.462005 l 12.41877,8.062182 5.83939,-0.670486 v 4.464453 l 24.821459,16.124362 5.839396,-0.670485 v 4.464453 l 12.402684,8.062181 29.631316,-3.385135 v -5.462005 l 6.804586,-0.768605 7.142401,4.644339 29.631316,-3.385135 v -5.445651 -23.417938 l 5.77505,-0.654133 7.142402,4.64434 29.631315,-3.368781 v -5.462006 -36.369762 z" /></g><g
       id="g200"><path
         id="path197"
         style="font-variation-settings:normal;opacity:1;vector-effect:none;fill:#ffe066;fill-opacity:1;stroke:none;stroke-width:1.09583;stroke-linecap:round;stroke-linejoin:round;stroke-miterlimit:4;stroke-dasharray:none;stroke-dashoffset:0;stroke-opacity:1;-inkscape-stroke:none"
         d="m 19.763168,12.588735 -9.404893,5.398996 -2.3365142,4.112072 4.7498102,0.04407 9.404892,-5.398996 z" /><path
         id="path198"
         style="font-variation-settings:normal;opacity:1;vector-effect:none;fill:#45adfc;fill-opacity:1;stroke:none;stroke-width:1.09583;stroke-linecap:round;stroke-linejoin:round;stroke-miterlimit:4;stroke-dasharray:none;stroke-dashoffset:0;stroke-opacity:1;-inkscape-stroke:none"
         d="m 19.762122,12.589335 -9.236161,5.302137 2.413294,4.15614 9.236164,-5.302128 z" /><path
         style="font-variation-settings:normal;opacity:1;vector-effect:none;fill:none;fill-opacity:1;stroke:#228be6;stroke-width:1.09583;stroke-linecap:round;stroke-linejoin:round;stroke-miterlimit:4;stroke-dasharray:none;stroke-dashoffset:0;stroke-opacity:1;-inkscape-stroke:none"
         d="m 11.732609,19.969543 9.237207,-5.302734"
         id="path199" /><path
         style="font-variation-settings:normal;opacity:1;vector-effect:none;fill:none;fill-opacity:1;stroke:#228be6;stroke-width:1.09583;stroke-linecap:round;stroke-linejoin:round;stroke-miterlimit:4;stroke-dasharray:none;stroke-dashoffset:0;stroke-opacity:1;-inkscape-stroke:none"
         d="m 10.525961,17.891472 2.413296,4.156143"
         id="path200" /><path
         id="rect196"
         style="font-variation-settings:normal;opacity:1;vector-effect:none;fill:none;fill-opacity:1;stroke:#3a3b40;stroke-width:1.09583;stroke-linecap:round;stroke-linejoin:round;stroke-miterlimit:4;stroke-dasharray:none;stroke-dashoffset:0;stroke-opacity:1;-inkscape-stroke:none"
         d="m 19.763168,12.588735 -9.404893,5.398996 -2.3365142,4.112072 4.7498102,0.04407 9.404892,-5.398996 z" /></g></g></svg>
