<?xml version="1.0" encoding="UTF-8" standalone="no"?>
<!-- Created with Inkscape (http://www.inkscape.org/) -->

<svg
   width="24"
   height="24"
   viewBox="0 0 24 24"
   version="1.1"
   id="svg1"
   xml:space="preserve"
   xmlns:xlink="http://www.w3.org/1999/xlink"
   xmlns="http://www.w3.org/2000/svg"
   xmlns:svg="http://www.w3.org/2000/svg"><defs
     id="defs1"><linearGradient
       id="linearGradient75"><stop
         style="stop-color:#3a3b40;stop-opacity:0.75;"
         offset="0"
         id="stop75" /><stop
         style="stop-color:#e9eef1;stop-opacity:0;"
         offset="0.5"
         id="stop76" /></linearGradient><linearGradient
       xlink:href="#linearGradient75"
       id="linearGradient99"
       gradientUnits="userSpaceOnUse"
       x1="69.804863"
       y1="-81.400963"
       x2="69.804749"
       y2="-202.30719" /></defs><g
     id="layer2"
     style="opacity:1;stroke-width:1.09582"
     transform="matrix(0.90994876,0,0,0.9151602,1.3239269,1.269753)"><g
       id="g92"
       transform="matrix(0.18291053,0,0,0.18074749,-1.0354355,37.378718)"
       style="display:inline;stroke-width:6.02676"><path
         d="m 93.182508,-180.21971 -80.453964,9.11512 33.69867,21.75806 80.453966,-9.11299 z m -1.113988,0.73629 32.09315,20.72298 -76.620468,8.67975 -32.093154,-20.72298 z"
         style="fill:#dee2e6;fill-rule:evenodd;stroke:#adb5bd;stroke-width:3.0134;stroke-linecap:round;stroke-linejoin:round;stroke-dasharray:none"
         id="path91" /><path
         d="m 92.06852,-179.48342 -76.620472,8.67975 32.093154,20.72298 44.527318,-5.04523 z"
         style="fill:#dee2e6;fill-rule:evenodd;stroke:#adb5bd;stroke-width:3.0134;stroke-linecap:round;stroke-linejoin:round;stroke-dasharray:none"
         id="path89" /><path
         d="m 92.06852,-179.48342 v 24.3575 l 32.09315,-3.63452 z"
         style="fill:#d1d5d9;fill-rule:evenodd;stroke:#adb5bd;stroke-width:3.0134;stroke-linecap:round;stroke-linejoin:round;stroke-dasharray:none"
         id="path90" /><path
         d="m 126.88118,-158.45952 -80.453966,9.11299 v 39.74287 5.96079 l 32.565364,-3.68788 v -5.96293 l 15.323235,-1.73509 v 5.96079 l 32.565367,-3.68788 v -5.96292 z"
         style="fill:#dee2e6;fill-rule:evenodd;stroke:#adb5bd;stroke-width:3.0134;stroke-linecap:round;stroke-linejoin:round;stroke-dasharray:none"
         id="path86" /><path
         d="m 12.728544,-171.10459 v 39.74074 5.96292 l 13.640449,8.80566 v -5.96079 l 6.419918,4.1446 v 0.002 5.95866 l 13.638303,8.8078 v -5.96079 -39.74287 z"
         style="fill:#d1d5d9;fill-rule:evenodd;stroke:#adb5bd;stroke-width:3.0134;stroke-linecap:round;stroke-linejoin:round;stroke-dasharray:none"
         id="path92" /><path
         d="m 94.315813,-109.06798 v -5.96079 l -7.853721,0.88996 z"
         style="fill:#d1d5d9;fill-rule:evenodd;stroke:#adb5bd;stroke-width:3.0134;stroke-linecap:round;stroke-linejoin:round;stroke-dasharray:none"
         id="path87" /><path
         d="m 32.788911,-117.32089 v -1.09057 l -6.419918,-4.1446 v 5.96079 z"
         style="fill:#dee2e6;fill-rule:evenodd;stroke:#adb5bd;stroke-width:3.0134;stroke-linecap:round;stroke-linejoin:round;stroke-dasharray:none"
         id="path88" /><path
         id="path93"
         style="font-variation-settings:normal;opacity:1;vector-effect:none;fill:url(#linearGradient99);fill-opacity:1;fill-rule:evenodd;stroke:#3a3b40;stroke-width:6.02681;stroke-linecap:round;stroke-linejoin:round;stroke-miterlimit:4;stroke-dasharray:none;stroke-dashoffset:0;stroke-opacity:1;-inkscape-stroke:none;stop-color:#000000;stop-opacity:1"
         d="m 93.187596,-180.21675 -80.455269,9.1136 v 39.74197 5.96129 l 13.635608,8.80149 6.418586,-0.71785 v 4.86891 l 13.635607,8.8015 32.569919,-3.6829 v -5.96129 l 7.476253,-0.8427 7.849548,5.06658 32.559552,-3.6933 v -5.96129 -39.74196 z" /></g><g
       id="g101"><path
         d="m 21.954819,11.724993 c -1.634685,0 -5.575779,0.261244 -7.940439,2.612437 -1.524915,1.51623 -1.659964,3.88556 -0.415071,5.558665 l -1.8667,1.856071 0.905027,0.899875 1.866701,-1.856071 c 0.756217,0.556218 1.652285,0.839416 2.550271,0.839416 1.100244,0 2.200806,-0.417481 3.04023,-1.252123 3.040231,-3.022919 2.605958,-8.636951 2.605958,-8.636951 0,0 -0.278742,-0.02132 -0.745977,-0.02132 z"
         id="path100"
         style="display:inline;fill:#67e076;stroke:none;stroke-width:2.19166;stroke-dasharray:none" /><path
         d="m 21.954819,11.724993 c -1.634685,0 -5.575779,0.261244 -7.940439,2.612437 -1.524915,1.51623 -1.659964,3.88556 -0.415071,5.558665 l -1.8667,1.856071 0.905027,0.899875 1.866701,-1.856071 c 0.756217,0.556218 1.652285,0.839416 2.550271,0.839416 1.100244,0 2.200806,-0.417481 3.04023,-1.252123 3.040231,-3.022919 2.605958,-8.636951 2.605958,-8.636951 0,0 -0.278742,-0.02132 -0.745977,-0.02132 z"
         id="path99"
         style="display:inline;fill:none;stroke:#3a3b40;stroke-width:1.09583;stroke-linecap:round;stroke-linejoin:round;stroke-dasharray:none" /><path
         style="font-variation-settings:normal;opacity:1;fill:none;fill-opacity:1;stroke:#37b24d;stroke-width:1.09583;stroke-linecap:round;stroke-linejoin:round;stroke-miterlimit:4;stroke-dasharray:none;stroke-dashoffset:0;stroke-opacity:1"
         d="m 15.029498,19.373927 c 0,0 1.098963,-2.18541 5.494815,-5.463524"
         id="path101" /></g></g></svg>
