<?xml version="1.0" encoding="UTF-8" standalone="no"?>
<!-- Created with Inkscape (http://www.inkscape.org/) -->

<svg
   width="24"
   height="24"
   viewBox="0 0 24 24"
   version="1.1"
   id="svg1"
   xml:space="preserve"
   xmlns:xlink="http://www.w3.org/1999/xlink"
   xmlns="http://www.w3.org/2000/svg"
   xmlns:svg="http://www.w3.org/2000/svg"><defs
     id="defs1"><linearGradient
       id="linearGradient75"><stop
         style="stop-color:#3a3b40;stop-opacity:0.75;"
         offset="0"
         id="stop75" /><stop
         style="stop-color:#e9eef1;stop-opacity:0;"
         offset="0.5"
         id="stop76" /></linearGradient><linearGradient
       xlink:href="#linearGradient75"
       id="linearGradient189-6"
       gradientUnits="userSpaceOnUse"
       x1="-31.813486"
       y1="-18.441862"
       x2="-31.813635"
       y2="-185.68123" /><linearGradient
       xlink:href="#linearGradient75"
       id="linearGradient206"
       gradientUnits="userSpaceOnUse"
       x1="-10.909897"
       y1="20.589621"
       x2="-10.909897"
       y2="-103.79577" /></defs><g
     id="layer2"
     style="display:inline;opacity:1;stroke-width:1.09582"
     transform="matrix(0.90994876,0,0,0.9151602,1.3239269,1.269753)"><g
       id="g208"><g
         id="g206"
         transform="matrix(0.18280107,0,0,0.1754674,13.726949,25.62755)"
         style="display:inline;opacity:1;stroke-width:6.11859"><path
           d="m 12.466682,-63.001507 -80.451817,9.115122 33.698669,21.760193 80.451817,-9.115122 z"
           style="fill:#e9eef1;fill-rule:evenodd;stroke:#adb5bd;stroke-width:3.05932;stroke-linecap:round;stroke-linejoin:round;stroke-dasharray:none"
           id="path201" /><path
           d="m 46.165351,-41.241314 -80.451817,9.115122 v 5.96079 5.960791 l 32.5632178,-3.687879 v -5.962925 l 15.3232362,-1.735096 v 5.960791 l 32.565363,-3.687879 v -5.962925 z"
           style="fill:#dee2e6;fill-rule:evenodd;stroke:#adb5bd;stroke-width:3.05932;stroke-linecap:round;stroke-linejoin:round;stroke-dasharray:none"
           id="path202" /><path
           d="m -67.985135,-53.886385 v 5.96079 5.962925 l 13.638302,8.805665 v -5.960791 l 6.419919,4.144596 v 5.96079 l 13.640448,8.807799 v -5.960791 -5.96079 z"
           style="fill:#d1d5d9;fill-rule:evenodd;stroke:#adb5bd;stroke-width:3.05932;stroke-linecap:round;stroke-linejoin:round;stroke-dasharray:none"
           id="path203" /><path
           d="m 13.599988,-25.62972 v -5.960791 l -7.8537222,0.889957 z"
           style="fill:#d1d5d9;fill-rule:evenodd;stroke:#adb5bd;stroke-width:3.05932;stroke-linecap:round;stroke-linejoin:round;stroke-dasharray:none"
           id="path204" /><path
           d="m -47.926914,-33.88263 v -1.09057 l -6.419919,-4.144596 v 5.960791 z"
           style="fill:#dee2e6;fill-rule:evenodd;stroke:#adb5bd;stroke-width:3.05932;stroke-linecap:round;stroke-linejoin:round;stroke-dasharray:none"
           id="path205" /><path
           id="path206"
           style="font-variation-settings:normal;opacity:1;vector-effect:none;fill:url(#linearGradient206);fill-opacity:1;fill-rule:evenodd;stroke:#3a3b40;stroke-width:6.11864;stroke-linecap:round;stroke-linejoin:round;stroke-miterlimit:4;stroke-dasharray:none;stroke-dashoffset:0;stroke-opacity:1;-inkscape-stroke:none;stop-color:#000000;stop-opacity:1"
           d="m 12.462033,-62.999696 -80.443383,9.113774 v 5.955324 5.965959 l 13.63535,8.805372 6.418465,-0.723146 v 4.870604 l 13.64572,8.805373 32.5589358,-3.690174 v -5.955325 l 7.4761123,-0.840126 7.8493999,5.062026 32.558935,-3.690174 v -5.955325 -5.965959 z" /></g><g
         id="g207"
         transform="translate(-3.6732733e-4)"><path
           d="m 12.144531,0.80078125 c -2.6718335,0 -4.9408179,0.84706805 -6.6621091,2.56835935 -1.6517562,1.6517561 -2.4667969,3.7263375 -2.4667969,6.171875 0,2.4334194 0.7731824,4.4656744 2.3710937,6.0156254 1.645526,1.61388 3.8294667,2.398437 6.4101563,2.398437 2.385296,0 4.418131,-0.664324 5.998047,-2.052734 1.747691,-1.537321 2.578125,-3.682163 2.578125,-6.3203127 V 9.0097656 c 0,-0.1737941 -0.0096,-0.3818246 -0.03711,-0.546875 L 20.183594,7.546875 H 10.128906 v 3.990234 h 5.716797 c -0.179228,0.557849 -0.482602,0.987443 -0.914062,1.355469 -0.732088,0.617045 -1.68468,0.949219 -3.033203,0.949219 -1.514717,0 -2.5502058,-0.40958 -3.3535161,-1.212891 C 7.7776218,11.861606 7.3945313,10.900939 7.3945312,9.5 7.3945313,8.0339367 7.802234,7.0122191 8.6269531,6.1875 9.4728629,5.3415903 10.555285,4.9140625 12.123047,4.9140625 c 1.731525,0 3.295894,0.5559831 4.822265,1.75 l 0.298829,0.2324219 h 1.49414 V 3.09375 L 18.335937,2.7636719 C 16.696276,1.4264725 14.610409,0.80078125 12.144531,0.80078125 Z"
           id="path207"
           style="font-size:20.4394px;font-family:'Decimal Book';-inkscape-font-specification:'Decimal Book, Normal';font-variant-ligatures:no-common-ligatures;fill:#3a3b40;stroke:none;stroke-width:1.09583;stroke-linecap:round;stroke-linejoin:round"
           transform="scale(1.0033042,0.99670667)"
           aria-label="G" /><path
           d="m 6.1548926,14.773718 q -2.04394,-1.982622 -2.04394,-5.2324866 0,-3.2498646 2.146137,-5.3960015 2.2483339,-2.248334 5.8865474,-2.248334 3.39294,0 5.498198,1.7169096 v 2.1870157 h -0.02044 Q 15.08691,3.8181995 12.123197,3.8181995 q -2.6775611,0 -4.2718343,1.5942731 -1.5533943,1.5533944 -1.5533943,4.08788 0,2.4322884 1.4716367,3.9039254 1.532955,1.532955 4.1287589,1.532955 2.309652,0 3.74041,-1.205925 1.389879,-1.185485 1.492076,-3.290743 H 11.223864 V 8.6418978 h 8.032684 q 0.02044,0.1226364 0.02044,0.3679092 0,0.2248334 0,0.5723032 0,3.5564558 -2.207455,5.4981988 -2.023501,1.778227 -5.273365,1.778227 -3.5155769,0 -5.6412744,-2.084818 z"
           id="text201"
           style="font-size:20.4394px;font-family:'Decimal Book';-inkscape-font-specification:'Decimal Book, Normal';font-variant-ligatures:no-common-ligatures;fill:#e03131;stroke-width:1.09583;stroke-linecap:round;stroke-linejoin:round"
           transform="scale(1.0033042,0.99670667)"
           aria-label="G" /></g></g></g></svg>
