<?xml version="1.0" encoding="UTF-8" standalone="no"?>
<!-- Created with Inkscape (http://www.inkscape.org/) -->

<svg
   width="24"
   height="24"
   viewBox="0 0 24 24"
   version="1.1"
   id="svg1"
   xml:space="preserve"
   xmlns:xlink="http://www.w3.org/1999/xlink"
   xmlns="http://www.w3.org/2000/svg"
   xmlns:svg="http://www.w3.org/2000/svg"><defs
     id="defs1"><linearGradient
       id="linearGradient107"><stop
         style="stop-color:#fa5252;stop-opacity:1"
         offset="0"
         id="stop107" /><stop
         style="stop-color:#228be6;stop-opacity:1"
         offset="1"
         id="stop108" /></linearGradient><linearGradient
       id="linearGradient75"><stop
         style="stop-color:#3a3b40;stop-opacity:0.75;"
         offset="0"
         id="stop75" /><stop
         style="stop-color:#e9eef1;stop-opacity:0;"
         offset="0.5"
         id="stop76" /></linearGradient><linearGradient
       xlink:href="#linearGradient75"
       id="linearGradient77"
       gradientUnits="userSpaceOnUse"
       x1="46.725567"
       y1="116.40392"
       x2="46.725559"
       y2="-41.197029" /><linearGradient
       xlink:href="#linearGradient107"
       id="linearGradient108"
       x1="62.214478"
       y1="52.314812"
       x2="71.860603"
       y2="52.314812"
       gradientUnits="userSpaceOnUse"
       gradientTransform="matrix(0.62969073,0,0,0.64369763,-26.124771,-17.65435)" /></defs><g
     id="layer2"
     style="opacity:1;stroke-width:1.09582"
     transform="matrix(0.90994876,0,0,0.9151602,1.3239269,1.269753)"><g
       id="g55"
       transform="matrix(0.15329862,0,0,0.13866349,4.5696442,3.8267885)"
       style="display:inline;stroke-width:3.75805;stroke-dasharray:none"><path
         d="M 74.553798,16.144899 -21.221255,26.995117 18.895186,52.899905 114.67239,42.049687 Z m -4.451659,2.940913 13.638302,8.807798 -32.563217,3.687879 -13.640449,-8.805664 z m -47.8886,5.425108 13.640449,8.807799 -32.565364,3.687879 -13.638302,-8.805664 z m 67.946821,7.527286 13.64045,8.807798 -32.565366,3.687879 -5.782434,-3.734831 -7.855868,-5.072967 z m -47.8886,5.425109 13.640449,8.807798 -32.565364,3.687879 -5.782434,-3.734831 -7.8558685,-5.072967 z"
         style="fill:#e9eef1;fill-rule:evenodd;stroke:none;stroke-width:3.75805;stroke-linecap:round;stroke-linejoin:round;stroke-dasharray:none"
         id="path44" /><path
         d="M 114.67239,42.049687 18.895186,52.899905 v 5.96079 L 114.67239,48.010478 Z"
         style="fill:#e9eef1;fill-rule:evenodd;stroke:none;stroke-width:3.75805;stroke-linecap:round;stroke-linejoin:round;stroke-dasharray:none"
         id="path43" /><path
         d="m 18.895186,58.860695 v -5.96079 L -21.221255,26.995117 v 5.962924 z"
         style="fill:#e9eef1;fill-rule:evenodd;stroke:none;stroke-width:3.75805;stroke-linecap:round;stroke-linejoin:round;stroke-dasharray:none"
         id="path42" /><path
         d="m 22.213539,24.51092 -32.563217,3.690014 7.8537215,5.070833 24.7094955,-2.800056 z"
         style="fill:#e9eef1;fill-rule:evenodd;stroke:none;stroke-width:3.75805;stroke-linecap:round;stroke-linejoin:round;stroke-dasharray:none"
         id="path53" /><path
         d="m 90.16036,32.038206 -32.563218,3.687879 7.855868,5.072967 24.70735,-2.800056 z"
         style="fill:#e9eef1;fill-rule:evenodd;stroke:none;stroke-width:3.75805;stroke-linecap:round;stroke-linejoin:round;stroke-dasharray:none"
         id="path48" /><path
         d="M 42.27176,37.463315 9.7085425,41.151194 17.564411,46.224161 42.27176,43.424105 Z"
         style="fill:#e9eef1;fill-rule:evenodd;stroke:none;stroke-width:3.75805;stroke-linecap:round;stroke-linejoin:round;stroke-dasharray:none"
         id="path45" /><path
         d="m 70.102139,19.085812 -32.565364,3.690013 7.855868,5.070833 24.709496,-2.800056 z"
         style="fill:#e9eef1;fill-rule:evenodd;stroke:none;stroke-width:3.75805;stroke-linecap:round;stroke-linejoin:round;stroke-dasharray:none"
         id="path52" /><path
         d="m 42.27176,37.463315 v 5.96079 l 5.786727,3.736965 7.853722,-0.889957 z"
         style="fill:#e9eef1;fill-rule:evenodd;stroke:none;stroke-width:3.75805;stroke-linecap:round;stroke-linejoin:round;stroke-dasharray:none"
         id="path46" /><path
         d="m 22.213539,24.51092 v 5.960791 l 5.784581,3.736965 7.855868,-0.889957 z"
         style="fill:#e9eef1;fill-rule:evenodd;stroke:none;stroke-width:3.75805;stroke-linecap:round;stroke-linejoin:round;stroke-dasharray:none"
         id="path55" /><path
         d="m 70.102139,19.085812 v 5.96079 l 5.78458,3.736965 7.853722,-0.889957 z"
         style="fill:#e9eef1;fill-rule:evenodd;stroke:none;stroke-width:3.75805;stroke-linecap:round;stroke-linejoin:round;stroke-dasharray:none"
         id="path50" /><path
         d="m 90.16036,32.038206 v 5.96079 l 5.78458,3.736965 7.85587,-0.889957 z"
         style="fill:#e9eef1;fill-rule:evenodd;stroke:none;stroke-width:3.75805;stroke-linecap:round;stroke-linejoin:round;stroke-dasharray:none"
         id="path49" /><path
         id="path56"
         style="font-variation-settings:normal;opacity:1;vector-effect:none;fill:url(#linearGradient77);fill-opacity:1;fill-rule:evenodd;stroke:#3a3b40;stroke-width:7.51609;stroke-linecap:round;stroke-linejoin:round;stroke-miterlimit:4;stroke-dasharray:none;stroke-dashoffset:0;stroke-opacity:1;-inkscape-stroke:none;stop-color:#000000;stop-opacity:1"
         d="m 74.552686,16.142107 -95.777353,10.85205 v 5.96176 l 40.123116,25.90755 95.777351,-10.85205 v -5.96176 z m -4.448295,8.90143 5.787839,3.7364 -24.718367,2.8023 -5.775201,-3.7364 z m -47.894995,5.42603 5.787838,3.7364 -24.7057294,2.8023 -5.7878384,-3.7364 z m 67.950235,7.52775 5.787838,3.7364 -24.70573,2.8023 -5.787838,-3.7364 z m -47.882358,5.42602 5.775201,3.7364 -24.70573,2.80231 -5.787838,-3.73641 z" /></g><g
       id="g113"><path
         style="fill:url(#linearGradient108);fill-opacity:1;stroke:#3a3b40;stroke-width:1.09583;stroke-linecap:round;stroke-linejoin:round"
         d="m 10.075579,12.269211 v 3.773247 c 0,3.360331 2.778155,6.054694 6.052882,6.054694 3.274727,0 6.052882,-2.694364 6.052882,-6.054694 v -3.773247 h -4.490294 v 3.773247 c 0,0.792215 -0.632028,1.466188 -1.562588,1.466188 -0.930561,0 -1.562588,-0.673971 -1.562588,-1.466188 v -3.773247 z"
         id="path113" /><path
         style="fill:#228be6;fill-opacity:1;stroke:#3a3b40;stroke-width:1.09583;stroke-linecap:round;stroke-linejoin:round"
         d="m 17.691049,9.5395833 v 2.7296277 h 4.490294 V 9.5395833 Z"
         id="path112" /><path
         style="fill:#fa5252;fill-opacity:1;stroke:#3a3b40;stroke-width:1.09583;stroke-linecap:round;stroke-linejoin:round"
         d="m 10.075579,9.5395833 v 2.7296277 h 4.490294 V 9.5395833 Z"
         id="path106" /></g></g></svg>
