<?xml version="1.0" encoding="UTF-8" standalone="no"?>
<!-- Created with Inkscape (http://www.inkscape.org/) -->

<svg
   width="24"
   height="24"
   viewBox="0 0 24 24"
   version="1.1"
   id="svg1"
   xml:space="preserve"
   xmlns:xlink="http://www.w3.org/1999/xlink"
   xmlns="http://www.w3.org/2000/svg"
   xmlns:svg="http://www.w3.org/2000/svg"><defs
     id="defs1"><linearGradient
       id="linearGradient142"><stop
         style="stop-color:#e9eef1;stop-opacity:1"
         offset="0"
         id="stop142" /><stop
         style="stop-color:#adb5bd;stop-opacity:1"
         offset="1"
         id="stop143" /></linearGradient><linearGradient
       id="linearGradient75"><stop
         style="stop-color:#3a3b40;stop-opacity:0.75;"
         offset="0"
         id="stop75" /><stop
         style="stop-color:#e9eef1;stop-opacity:0;"
         offset="0.5"
         id="stop76" /></linearGradient><linearGradient
       xlink:href="#linearGradient75"
       id="linearGradient131"
       gradientUnits="userSpaceOnUse"
       x1="11.732609"
       y1="22.665699"
       x2="11.732608"
       y2="0.8122015" /><linearGradient
       xlink:href="#linearGradient142"
       id="linearGradient143"
       gradientUnits="userSpaceOnUse"
       x1="8.7199221"
       y1="5.5525441"
       x2="10.633646"
       y2="12.817698" /><linearGradient
       xlink:href="#linearGradient142"
       id="linearGradient144"
       gradientUnits="userSpaceOnUse"
       x1="8.7199221"
       y1="5.5525441"
       x2="10.633646"
       y2="12.817698" /></defs><g
     id="layer2"
     style="opacity:1;stroke-width:1.09582"
     transform="matrix(0.90994876,0,0,0.9151602,1.3239269,1.269753)"><g
       id="g122"
       transform="matrix(0.97450924,0,0,0.97388081,0.29909607,0.30624724)"
       style="stroke-width:1.12485"><path
         d="m 8.7199216,5.5525442 -7.192811,0.806335 4.423927,2.827527 1.601851,1.0236848 1.241585,-0.139215 c -0.04936,-0.4019458 -0.07455,-0.8052828 -0.07455,-1.1950258 z"
         style="font-variation-settings:normal;opacity:1;vector-effect:none;fill:url(#linearGradient144);fill-opacity:1;fill-rule:evenodd;stroke:#adb5bd;stroke-width:0.562428;stroke-linecap:round;stroke-linejoin:round;stroke-miterlimit:4;stroke-dasharray:none;stroke-dashoffset:0;stroke-opacity:1;-inkscape-stroke:none;stop-color:#000000;stop-opacity:1"
         id="path122" /><path
         d="m 15.912733,4.7458122 -6.8333524,0.766276 4.4239284,2.827528 1.60185,1.023684 0.882126,-0.09876 c -0.04936,-0.401947 -0.07455,-0.80536 -0.07455,-1.195026 z"
         style="font-variation-settings:normal;opacity:1;vector-effect:none;fill:url(#linearGradient143);fill-opacity:1;fill-rule:evenodd;stroke:#adb5bd;stroke-width:0.562428;stroke-linecap:round;stroke-linejoin:round;stroke-miterlimit:4;stroke-dasharray:none;stroke-dashoffset:0;stroke-opacity:1;-inkscape-stroke:none;stop-color:#000000;stop-opacity:1"
         id="path121" /><path
         d="m 15.912733,4.7458122 v 3.323703 c 0,0.389666 0.02519,0.793079 0.07455,1.195026 l 5.950823,-0.667517 z"
         style="fill:#d1d5d9;fill-rule:evenodd;stroke:#adb5bd;stroke-width:0.562428;stroke-linecap:round;stroke-linejoin:round;stroke-dasharray:none"
         id="path120" /><path
         d="m 8.7199216,5.5525442 v 3.323306 c 0,0.389743 0.02519,0.79308 0.07455,1.1950258 L 14.745295,9.4037562 Z"
         style="fill:#d1d5d9;fill-rule:evenodd;stroke:#adb5bd;stroke-width:0.562428;stroke-linecap:round;stroke-linejoin:round;stroke-dasharray:none"
         id="path119" /><path
         d="M 16.121478,4.6093742 1.0169366,6.3029552 7.3437406,10.346926 22.448282,8.6529482 Z m -0.208745,0.136438 6.025375,3.851212 -6.832949,0.766276 -6.0257784,-3.851212 z M 8.7199216,5.5525442 14.745297,9.4037562 7.5528886,10.210091 1.5271106,6.3588792 Z"
         style="fill:#dee2e6;fill-rule:evenodd;stroke:#adb5bd;stroke-width:0.562428;stroke-linecap:round;stroke-linejoin:round;stroke-dasharray:none"
         id="path118" /><path
         d="m 4.7827956,16.298258 v -0.202674 l -1.204914,-0.769846 v 1.107769 z"
         style="fill:#dee2e6;fill-rule:evenodd;stroke:#adb5bd;stroke-width:0.562428;stroke-linecap:round;stroke-linejoin:round;stroke-dasharray:none"
         id="path117" /><path
         d="m 16.334655,17.832397 v -1.108165 l -1.474509,0.165392 z"
         style="fill:#d1d5d9;fill-rule:evenodd;stroke:#adb5bd;stroke-width:0.562428;stroke-linecap:round;stroke-linejoin:round;stroke-dasharray:none"
         id="path116" /><path
         d="M 22.448282,8.6529482 7.3437406,10.346926 v 7.385522 1.108166 l 6.1136284,-0.685762 v -1.107769 l 2.877286,-0.322455 v 1.107769 l 6.113627,-0.685761 v -1.107769 z"
         style="fill:#dee2e6;fill-rule:evenodd;stroke:#adb5bd;stroke-width:0.562428;stroke-linecap:round;stroke-linejoin:round;stroke-dasharray:none"
         id="path115" /><path
         d="m 1.0169366,6.3029552 v 7.3859188 1.107769 l 2.560945,1.636864 v -1.108165 l 1.204914,0.770242 v 1.108165 l 2.560945,1.636865 v -1.108166 -7.385522 z"
         style="fill:#d1d5d9;fill-rule:evenodd;stroke:#adb5bd;stroke-width:0.562428;stroke-linecap:round;stroke-linejoin:round;stroke-dasharray:none"
         id="path114" /><path
         id="path123"
         style="font-variation-settings:normal;display:inline;opacity:1;vector-effect:none;fill:url(#linearGradient131);fill-opacity:1;fill-rule:evenodd;stroke:#3a3b40;stroke-width:1.12486;stroke-linecap:round;stroke-linejoin:round;stroke-miterlimit:4;stroke-dasharray:none;stroke-dashoffset:0;stroke-opacity:1;-inkscape-stroke:none;stop-color:#000000;stop-opacity:1"
         d="M 16.122022,4.6096063 1.0177201,6.3020184 v 7.3864286 1.107644 l 2.5606696,1.636923 1.2041371,-0.134454 v 0.904897 l 2.5606696,1.636923 6.1151276,-0.685075 v -1.107644 l 1.401607,-0.15793 h 0.0021 l 1.472439,0.943312 6.112981,-0.687209 V 16.038189 8.6538948 Z" /></g></g></svg>
