<?xml version="1.0" encoding="UTF-8" standalone="no"?>
<!-- Created with Inkscape (http://www.inkscape.org/) -->

<svg
   width="24"
   height="24"
   viewBox="0 0 24 24"
   version="1.1"
   id="svg1"
   xml:space="preserve"
   xmlns:xlink="http://www.w3.org/1999/xlink"
   xmlns="http://www.w3.org/2000/svg"
   xmlns:svg="http://www.w3.org/2000/svg"><defs
     id="defs1"><linearGradient
       id="linearGradient75"><stop
         style="stop-color:#3a3b40;stop-opacity:0.75;"
         offset="0"
         id="stop75" /><stop
         style="stop-color:#e9eef1;stop-opacity:0;"
         offset="0.5"
         id="stop76" /></linearGradient><linearGradient
       xlink:href="#linearGradient75"
       id="linearGradient99"
       gradientUnits="userSpaceOnUse"
       x1="69.804863"
       y1="-81.400963"
       x2="69.804749"
       y2="-202.30719" /></defs><g
     id="layer2"
     style="opacity:1;stroke-width:1.09582"
     transform="matrix(0.90994876,0,0,0.9151602,1.3239269,1.269753)"><g
       id="g92"
       transform="matrix(0.18291053,0,0,0.18074749,-1.0354355,37.378718)"
       style="display:inline;stroke-width:6.02676"><path
         d="m 93.182508,-180.21971 -80.453964,9.11512 33.69867,21.75806 80.453966,-9.11299 z m -1.113988,0.73629 32.09315,20.72298 -76.620468,8.67975 -32.093154,-20.72298 z"
         style="fill:#dee2e6;fill-rule:evenodd;stroke:#adb5bd;stroke-width:3.0134;stroke-linecap:round;stroke-linejoin:round;stroke-dasharray:none"
         id="path91" /><path
         d="m 92.06852,-179.48342 -76.620472,8.67975 32.093154,20.72298 44.527318,-5.04523 z"
         style="fill:#dee2e6;fill-rule:evenodd;stroke:#adb5bd;stroke-width:3.0134;stroke-linecap:round;stroke-linejoin:round;stroke-dasharray:none"
         id="path89" /><path
         d="m 92.06852,-179.48342 v 24.3575 l 32.09315,-3.63452 z"
         style="fill:#d1d5d9;fill-rule:evenodd;stroke:#adb5bd;stroke-width:3.0134;stroke-linecap:round;stroke-linejoin:round;stroke-dasharray:none"
         id="path90" /><path
         d="m 126.88118,-158.45952 -80.453966,9.11299 v 39.74287 5.96079 l 32.565364,-3.68788 v -5.96293 l 15.323235,-1.73509 v 5.96079 l 32.565367,-3.68788 v -5.96292 z"
         style="fill:#dee2e6;fill-rule:evenodd;stroke:#adb5bd;stroke-width:3.0134;stroke-linecap:round;stroke-linejoin:round;stroke-dasharray:none"
         id="path86" /><path
         d="m 12.728544,-171.10459 v 39.74074 5.96292 l 13.640449,8.80566 v -5.96079 l 6.419918,4.1446 v 0.002 5.95866 l 13.638303,8.8078 v -5.96079 -39.74287 z"
         style="fill:#d1d5d9;fill-rule:evenodd;stroke:#adb5bd;stroke-width:3.0134;stroke-linecap:round;stroke-linejoin:round;stroke-dasharray:none"
         id="path92" /><path
         d="m 94.315813,-109.06798 v -5.96079 l -7.853721,0.88996 z"
         style="fill:#d1d5d9;fill-rule:evenodd;stroke:#adb5bd;stroke-width:3.0134;stroke-linecap:round;stroke-linejoin:round;stroke-dasharray:none"
         id="path87" /><path
         d="m 32.788911,-117.32089 v -1.09057 l -6.419918,-4.1446 v 5.96079 z"
         style="fill:#dee2e6;fill-rule:evenodd;stroke:#adb5bd;stroke-width:3.0134;stroke-linecap:round;stroke-linejoin:round;stroke-dasharray:none"
         id="path88" /><path
         style="font-variation-settings:normal;opacity:1;vector-effect:none;fill:#228be6;fill-opacity:1;stroke:#adb5bd;stroke-width:0.547915;stroke-linecap:round;stroke-linejoin:round;stroke-miterlimit:4;stroke-dasharray:none;stroke-dashoffset:0;stroke-opacity:1;-inkscape-stroke:none"
         d="M 4.6936315,8.4692849 2.0065589,6.6445228 15.804866,4.9375405 18.642818,6.8586448 Z"
         id="path144"
         transform="matrix(5.4671538,0,0,5.5325803,5.6608851,-206.80076)" /><path
         id="path93"
         style="font-variation-settings:normal;opacity:1;vector-effect:none;fill:url(#linearGradient99);fill-opacity:1;fill-rule:evenodd;stroke:#3a3b40;stroke-width:6.02681;stroke-linecap:round;stroke-linejoin:round;stroke-miterlimit:4;stroke-dasharray:none;stroke-dashoffset:0;stroke-opacity:1;-inkscape-stroke:none;stop-color:#000000;stop-opacity:1"
         d="m 93.187596,-180.21675 -80.455269,9.1136 v 39.74197 5.96129 l 13.635608,8.80149 6.418586,-0.71785 v 4.86891 l 13.635607,8.8015 32.569919,-3.6829 v -5.96129 l 7.476253,-0.8427 7.849548,5.06658 32.559552,-3.6933 v -5.96129 -39.74196 z" /><rect
         style="font-variation-settings:normal;opacity:1;fill:#e9eef1;fill-opacity:1;stroke:#3a3b40;stroke-width:6.02681;stroke-linecap:round;stroke-linejoin:round;stroke-miterlimit:4;stroke-dasharray:none;stroke-dashoffset:0;stroke-opacity:1"
         id="rect145"
         width="54.209148"
         height="24.36932"
         x="72.741486"
         y="-108.68987" /><path
         id="path147"
         style="fill:#1971c2;stroke:none;stroke-width:6.02676;stroke-linecap:square;stroke-linejoin:round"
         d="m 81.870846,-103.59922 v 2.80258 h 1.392644 1.425283 v 8.593809 H 83.26349 81.870846 v 2.791621 h 1.392644 5.646735 1.392644 v -2.791621 H 88.910225 87.48494 v -8.593809 h 1.425285 1.392644 v -2.80258 H 88.910225 83.26349 Z" /><rect
         style="font-variation-settings:normal;opacity:1;fill:#1971c2;fill-opacity:1;stroke:none;stroke-width:3.0134;stroke-linecap:square;stroke-linejoin:round;stroke-miterlimit:4;stroke-dasharray:none;stroke-dashoffset:0;stroke-opacity:1"
         id="rect152"
         width="4.0057621"
         height="3.1669121"
         x="100.54868"
         y="-95.150932" /><rect
         style="font-variation-settings:normal;opacity:1;fill:#1971c2;fill-opacity:1;stroke:none;stroke-width:3.0134;stroke-linecap:square;stroke-linejoin:round;stroke-miterlimit:4;stroke-dasharray:none;stroke-dashoffset:0;stroke-opacity:1"
         id="rect153"
         width="4.0057621"
         height="3.1669121"
         x="107.2067"
         y="-95.150932" /><rect
         style="font-variation-settings:normal;opacity:1;fill:#1971c2;fill-opacity:1;stroke:none;stroke-width:3.0134;stroke-linecap:square;stroke-linejoin:round;stroke-miterlimit:4;stroke-dasharray:none;stroke-dashoffset:0;stroke-opacity:1"
         id="rect154"
         width="4.0057621"
         height="3.1669121"
         x="113.8647"
         y="-95.150932" /></g></g></svg>
