<?xml version="1.0" encoding="UTF-8" standalone="no"?>
<!-- Created with Inkscape (http://www.inkscape.org/) -->

<svg
   width="24"
   height="24"
   viewBox="0 0 24 24"
   version="1.1"
   id="svg1"
   xml:space="preserve"
   xmlns:xlink="http://www.w3.org/1999/xlink"
   xmlns="http://www.w3.org/2000/svg"
   xmlns:svg="http://www.w3.org/2000/svg"><defs
     id="defs1"><linearGradient
       id="linearGradient75"><stop
         style="stop-color:#3a3b40;stop-opacity:0.75;"
         offset="0"
         id="stop75" /><stop
         style="stop-color:#e9eef1;stop-opacity:0;"
         offset="0.5"
         id="stop76" /></linearGradient><linearGradient
       xlink:href="#linearGradient75"
       id="linearGradient77"
       gradientUnits="userSpaceOnUse"
       x1="46.725567"
       y1="116.40392"
       x2="46.725559"
       y2="-41.197029" /></defs><g
     id="layer2"
     style="opacity:1;stroke-width:1.09582"
     transform="matrix(0.90994876,0,0,0.9151602,1.3239269,1.269753)"><g
       id="g55"
       transform="matrix(0.15329862,0,0,0.13866349,4.5696442,3.8267885)"
       style="display:inline;stroke-width:3.75805;stroke-dasharray:none"><path
         d="M 74.553798,16.144899 -21.221255,26.995117 18.895186,52.899905 114.67239,42.049687 Z m -4.451659,2.940913 13.638302,8.807798 -32.563217,3.687879 -13.640449,-8.805664 z m -47.8886,5.425108 13.640449,8.807799 -32.565364,3.687879 -13.638302,-8.805664 z m 67.946821,7.527286 13.64045,8.807798 -32.565366,3.687879 -5.782434,-3.734831 -7.855868,-5.072967 z m -47.8886,5.425109 13.640449,8.807798 -32.565364,3.687879 -5.782434,-3.734831 -7.8558685,-5.072967 z"
         style="fill:#e9eef1;fill-rule:evenodd;stroke:none;stroke-width:3.75805;stroke-linecap:round;stroke-linejoin:round;stroke-dasharray:none"
         id="path44" /><path
         d="M 114.67239,42.049687 18.895186,52.899905 v 5.96079 L 114.67239,48.010478 Z"
         style="fill:#e9eef1;fill-rule:evenodd;stroke:none;stroke-width:3.75805;stroke-linecap:round;stroke-linejoin:round;stroke-dasharray:none"
         id="path43" /><path
         d="m 18.895186,58.860695 v -5.96079 L -21.221255,26.995117 v 5.962924 z"
         style="fill:#e9eef1;fill-rule:evenodd;stroke:none;stroke-width:3.75805;stroke-linecap:round;stroke-linejoin:round;stroke-dasharray:none"
         id="path42" /><path
         d="m 22.213539,24.51092 -32.563217,3.690014 7.8537215,5.070833 24.7094955,-2.800056 z"
         style="fill:#e9eef1;fill-rule:evenodd;stroke:none;stroke-width:3.75805;stroke-linecap:round;stroke-linejoin:round;stroke-dasharray:none"
         id="path53" /><path
         d="m 90.16036,32.038206 -32.563218,3.687879 7.855868,5.072967 24.70735,-2.800056 z"
         style="fill:#e9eef1;fill-rule:evenodd;stroke:none;stroke-width:3.75805;stroke-linecap:round;stroke-linejoin:round;stroke-dasharray:none"
         id="path48" /><path
         d="M 42.27176,37.463315 9.7085425,41.151194 17.564411,46.224161 42.27176,43.424105 Z"
         style="fill:#e9eef1;fill-rule:evenodd;stroke:none;stroke-width:3.75805;stroke-linecap:round;stroke-linejoin:round;stroke-dasharray:none"
         id="path45" /><path
         d="m 70.102139,19.085812 -32.565364,3.690013 7.855868,5.070833 24.709496,-2.800056 z"
         style="fill:#e9eef1;fill-rule:evenodd;stroke:none;stroke-width:3.75805;stroke-linecap:round;stroke-linejoin:round;stroke-dasharray:none"
         id="path52" /><path
         d="m 42.27176,37.463315 v 5.96079 l 5.786727,3.736965 7.853722,-0.889957 z"
         style="fill:#e9eef1;fill-rule:evenodd;stroke:none;stroke-width:3.75805;stroke-linecap:round;stroke-linejoin:round;stroke-dasharray:none"
         id="path46" /><path
         d="m 22.213539,24.51092 v 5.960791 l 5.784581,3.736965 7.855868,-0.889957 z"
         style="fill:#e9eef1;fill-rule:evenodd;stroke:none;stroke-width:3.75805;stroke-linecap:round;stroke-linejoin:round;stroke-dasharray:none"
         id="path55" /><path
         d="m 70.102139,19.085812 v 5.96079 l 5.78458,3.736965 7.853722,-0.889957 z"
         style="fill:#e9eef1;fill-rule:evenodd;stroke:none;stroke-width:3.75805;stroke-linecap:round;stroke-linejoin:round;stroke-dasharray:none"
         id="path50" /><path
         d="m 90.16036,32.038206 v 5.96079 l 5.78458,3.736965 7.85587,-0.889957 z"
         style="fill:#e9eef1;fill-rule:evenodd;stroke:none;stroke-width:3.75805;stroke-linecap:round;stroke-linejoin:round;stroke-dasharray:none"
         id="path49" /><path
         id="path56"
         style="font-variation-settings:normal;opacity:1;vector-effect:none;fill:url(#linearGradient77);fill-opacity:1;fill-rule:evenodd;stroke:#3a3b40;stroke-width:7.51609;stroke-linecap:round;stroke-linejoin:round;stroke-miterlimit:4;stroke-dasharray:none;stroke-dashoffset:0;stroke-opacity:1;-inkscape-stroke:none;stop-color:#000000;stop-opacity:1"
         d="m 74.552686,16.142107 -95.777353,10.85205 v 5.96176 l 40.123116,25.90755 95.777351,-10.85205 v -5.96176 z m -4.448295,8.90143 5.787839,3.7364 -24.718367,2.8023 -5.775201,-3.7364 z m -47.894995,5.42603 5.787838,3.7364 -24.7057294,2.8023 -5.7878384,-3.7364 z m 67.950235,7.52775 5.787838,3.7364 -24.70573,2.8023 -5.787838,-3.7364 z m -47.882358,5.42602 5.775201,3.7364 -24.70573,2.80231 -5.787838,-3.73641 z" /></g><g
       id="g1391"
       transform="matrix(0.51200572,0,0,0.50909008,-8.8744285,-8.8326473)"
       style="stroke-width:2.14637"><path
         style="fill:#ffe066;fill-rule:evenodd;stroke:none;stroke-width:2.14637px;stroke-linecap:butt;stroke-linejoin:miter;stroke-opacity:1"
         d="m 48.12664,45.344091 -10.483371,9.998753 -0.08017,4.764398 4.613683,0.141473 12.893591,-12.695005 5.371956,0.584017 -10.101915,-10.556769 0.06447,4.444551 z"
         id="path1388" /><g
         style="fill:none;stroke-width:1.12822;stroke-dasharray:none"
         id="g1388"
         transform="matrix(3.8049325,0,0,3.8049325,-229.7868,195.13897)"><path
           fill-rule="evenodd"
           clip-rule="evenodd"
           d="m 73.415939,-41.785083 c 0.114986,-0.04762 0.247325,-0.0213 0.335325,0.0667 l 2.769246,2.769239 c 0.088,0.088 0.114339,0.22034 0.06671,0.335325 -0.04763,0.114985 -0.159816,0.189939 -0.284278,0.189939 h -1.411024 l -3.204385,3.20439 c -0.115407,0.115416 -0.271934,0.180247 -0.435145,0.180247 h -0.795631 c -0.33987,0 -0.615388,-0.275509 -0.615388,-0.615388 v -0.795635 c 0,-0.1632 0.06483,-0.319725 0.180244,-0.43514 1.068141,-1.068129 2.136254,-2.136258 3.204389,-3.204381 v -1.411019 c 0,-0.124451 0.07495,-0.236648 0.189939,-0.284272 z m -0.65148,3.027108 -0.334088,0.334093 0.795629,0.795636 0.334094,-0.334094 z m 1.230776,0.360494 -0.795635,-0.795638 0.334094,-0.334079 0.795635,0.795623 z m -1.204375,1.204375 -0.795636,-0.795634 -0.334087,0.334094 0.795628,0.795635 z m -0.769238,0.769235 -0.795629,-0.795635 -0.334092,0.334095 0.79563,0.795634 z m -0.769236,0.769235 -0.795631,-0.795635 v 0.795635 z m 2.589002,-5.103338 v 0.668182 l 1.050528,1.050523 h 0.668189 z"
           fill="#0f0f0f"
           id="path1"
           style="fill:#3a3b40;stroke:none;stroke-width:0.564107;stroke-dasharray:none;stroke-opacity:1" /></g></g></g></svg>
