<?xml version="1.0" encoding="UTF-8" standalone="no"?>
<!-- Created with Inkscape (http://www.inkscape.org/) -->

<svg
   width="24"
   height="24"
   viewBox="0 0 24 24"
   version="1.1"
   id="svg1"
   inkscape:version="1.4 (86a8ad7, 2024-10-11)"
   sodipodi:docname="template_resource.svg"
   xml:space="preserve"
   xmlns:inkscape="http://www.inkscape.org/namespaces/inkscape"
   xmlns:sodipodi="http://sodipodi.sourceforge.net/DTD/sodipodi-0.dtd"
   xmlns:xlink="http://www.w3.org/1999/xlink"
   xmlns="http://www.w3.org/2000/svg"
   xmlns:svg="http://www.w3.org/2000/svg"><sodipodi:namedview
     id="namedview1"
     pagecolor="#ffffff"
     bordercolor="#000000"
     borderopacity="0.25"
     inkscape:showpageshadow="2"
     inkscape:pageopacity="0.0"
     inkscape:pagecheckerboard="0"
     inkscape:deskcolor="#d1d1d1"
     inkscape:document-units="px"
     showgrid="true"
     inkscape:zoom="22.627417"
     inkscape:cx="9.5901357"
     inkscape:cy="13.390835"
     inkscape:window-width="1368"
     inkscape:window-height="842"
     inkscape:window-x="-6"
     inkscape:window-y="-6"
     inkscape:window-maximized="1"
     inkscape:current-layer="layer2"
     showguides="false"><inkscape:grid
       id="grid1"
       units="px"
       originx="0"
       originy="0"
       spacingx="1"
       spacingy="1"
       empcolor="#0099e5"
       empopacity="0.30196078"
       color="#0099e5"
       opacity="0.14901961"
       empspacing="1"
       enabled="true"
       visible="true" /><inkscape:grid
       type="axonomgrid"
       id="grid2"
       units="px"
       originx="0"
       originy="0"
       spacingx="3.7795276"
       spacingy="2"
       empcolor="#00557f"
       empopacity="0.30196078"
       color="#0099e5"
       opacity="0.14901961"
       empspacing="3"
       dotted="false"
       gridanglex="33"
       gridanglez="6.5"
       enabled="false"
       visible="true" /></sodipodi:namedview><defs
     id="defs1"><linearGradient
       id="linearGradient142"
       inkscape:collect="always"><stop
         style="stop-color:#e9eef1;stop-opacity:1"
         offset="0"
         id="stop142" /><stop
         style="stop-color:#adb5bd;stop-opacity:1"
         offset="1"
         id="stop143" /></linearGradient><linearGradient
       id="linearGradient107"
       inkscape:collect="always"><stop
         style="stop-color:#fa5252;stop-opacity:1"
         offset="0"
         id="stop107" /><stop
         style="stop-color:#228be6;stop-opacity:1"
         offset="1"
         id="stop108" /></linearGradient><linearGradient
       id="linearGradient75"
       inkscape:collect="always"><stop
         style="stop-color:#3a3b40;stop-opacity:0.75;"
         offset="0"
         id="stop75" /><stop
         style="stop-color:#e9eef1;stop-opacity:0;"
         offset="0.5"
         id="stop76" /></linearGradient><linearGradient
       inkscape:collect="always"
       xlink:href="#linearGradient75"
       id="linearGradient76"
       x1="-53.282215"
       y1="-12.878614"
       x2="-53.28233"
       y2="-133.70663"
       gradientUnits="userSpaceOnUse" /><linearGradient
       inkscape:collect="always"
       xlink:href="#linearGradient75"
       id="linearGradient77"
       gradientUnits="userSpaceOnUse"
       x1="46.725567"
       y1="116.40392"
       x2="46.725559"
       y2="-41.197029" /><linearGradient
       inkscape:collect="always"
       xlink:href="#linearGradient75"
       id="linearGradient86"
       gradientUnits="userSpaceOnUse"
       x1="-10.909897"
       y1="20.589621"
       x2="-10.909897"
       y2="-103.79577" /><linearGradient
       inkscape:collect="always"
       xlink:href="#linearGradient75"
       id="linearGradient99"
       gradientUnits="userSpaceOnUse"
       x1="69.804863"
       y1="-81.400963"
       x2="69.804749"
       y2="-202.30719" /><linearGradient
       inkscape:collect="always"
       xlink:href="#linearGradient107"
       id="linearGradient108"
       x1="62.214478"
       y1="52.314812"
       x2="71.860603"
       y2="52.314812"
       gradientUnits="userSpaceOnUse"
       gradientTransform="matrix(0.62969073,0,0,0.64369763,-26.124771,-17.65435)" /><linearGradient
       inkscape:collect="always"
       xlink:href="#linearGradient75"
       id="linearGradient131"
       gradientUnits="userSpaceOnUse"
       x1="11.732609"
       y1="22.665699"
       x2="11.732608"
       y2="0.8122015" /><linearGradient
       inkscape:collect="always"
       xlink:href="#linearGradient142"
       id="linearGradient143"
       gradientUnits="userSpaceOnUse"
       x1="8.7199221"
       y1="5.5525441"
       x2="10.633646"
       y2="12.817698" /><linearGradient
       inkscape:collect="always"
       xlink:href="#linearGradient142"
       id="linearGradient144"
       gradientUnits="userSpaceOnUse"
       x1="8.7199221"
       y1="5.5525441"
       x2="10.633646"
       y2="12.817698" /><linearGradient
       inkscape:collect="always"
       xlink:href="#linearGradient75"
       id="linearGradient189"
       gradientUnits="userSpaceOnUse"
       x1="-31.813486"
       y1="-18.441862"
       x2="-31.813635"
       y2="-185.68123" /><linearGradient
       inkscape:collect="always"
       xlink:href="#linearGradient75"
       id="linearGradient196"
       gradientUnits="userSpaceOnUse"
       x1="65.74913"
       y1="17.866915"
       x2="65.749123"
       y2="-211.27638" /><linearGradient
       inkscape:collect="always"
       xlink:href="#linearGradient75"
       id="linearGradient206"
       gradientUnits="userSpaceOnUse"
       x1="-10.909897"
       y1="20.589621"
       x2="-10.909897"
       y2="-103.79577" /></defs><g
     inkscape:label="Layer 1"
     inkscape:groupmode="layer"
     id="layer1"
     style="display:inline;stroke-width:2.13334"
     transform="matrix(0.46875,0,0,0.46875,0.51501621,0.50811636)"
     sodipodi:insensitive="true"><rect
       style="opacity:0.5;fill:none;fill-rule:evenodd;stroke:#a61e4d;stroke-width:0.0533333;stroke-linecap:round;stroke-linejoin:round;stroke-miterlimit:100;stroke-dasharray:none;stroke-dashoffset:4.6"
       id="rect3"
       width="38.346664"
       height="38.346664"
       x="5.3279653"
       y="5.3426847"
       rx="2.133333"
       ry="2.1333332" /><g
       id="g3-6-3-3-90"
       inkscape:label="template"
       transform="translate(0.01731682,-0.01731491)"
       style="stroke-width:0.0533333;stroke-dasharray:none"
       sodipodi:insensitive="true" /><rect
       style="opacity:0.5;fill:none;fill-opacity:0.5;fill-rule:evenodd;stroke:#a61e4d;stroke-width:0.0533333;stroke-linecap:round;stroke-linejoin:round;stroke-miterlimit:100;stroke-dasharray:none;stroke-dashoffset:4.6"
       id="rect1"
       width="42.639999"
       height="29.813328"
       x="3.1946323"
       y="9.6093521"
       rx="2.1333337"
       ry="2.1333332" /><rect
       style="opacity:0.5;fill:none;fill-opacity:0.5;fill-rule:evenodd;stroke:#a61e4d;stroke-width:0.0533333;stroke-linecap:round;stroke-linejoin:round;stroke-miterlimit:100;stroke-dasharray:none;stroke-dashoffset:4.6"
       id="rect2"
       width="29.866667"
       height="42.638828"
       x="9.5679655"
       y="3.21052"
       rx="2.1333332"
       ry="2.1333334" /><ellipse
       style="opacity:0.5;fill:none;fill-opacity:0.5;fill-rule:evenodd;stroke:#a61e4d;stroke-width:0.0533333;stroke-linecap:round;stroke-linejoin:round;stroke-miterlimit:100;stroke-dasharray:none;stroke-dashoffset:4.6"
       id="path3"
       cx="24.501297"
       cy="24.516016"
       rx="21.333334"
       ry="21.305496" /><ellipse
       style="opacity:0.5;fill:none;fill-rule:evenodd;stroke:#a61e4d;stroke-width:0.0533332;stroke-linecap:round;stroke-linejoin:round;stroke-miterlimit:100;stroke-dasharray:none;stroke-dashoffset:4.6"
       id="path4"
       cx="24.514631"
       cy="24.516018"
       rx="8.5466661"
       ry="8.5359716" /><path
       style="opacity:0.5;fill:none;fill-rule:evenodd;stroke:#a61e4d;stroke-width:0.0533333;stroke-linecap:round;stroke-linejoin:round;stroke-miterlimit:100;stroke-dasharray:none;stroke-dashoffset:4.6"
       d="M -1.0987012,-1.0839816 50.101298,50.116018"
       id="path5" /><path
       style="opacity:0.5;fill:none;fill-rule:evenodd;stroke:#a61e4d;stroke-width:0.0533333;stroke-linecap:round;stroke-linejoin:round;stroke-miterlimit:100;stroke-dasharray:none;stroke-dashoffset:4.6"
       d="M 50.101298,-1.0839816 -1.0987012,50.116018"
       id="path6" /><path
       style="opacity:0.5;fill:none;fill-rule:evenodd;stroke:#a61e4d;stroke-width:0.0533333;stroke-linecap:round;stroke-linejoin:round;stroke-miterlimit:100;stroke-dasharray:none;stroke-dashoffset:4.6"
       d="M 24.501298,-1.0839816 V 50.116018"
       id="path7" /><path
       style="opacity:0.5;fill:none;fill-rule:evenodd;stroke:#a61e4d;stroke-width:0.0533333;stroke-linecap:round;stroke-linejoin:round;stroke-miterlimit:100;stroke-dasharray:none;stroke-dashoffset:4.6"
       d="M -1.0987012,24.516018 H 50.101298"
       id="path8" /><path
       style="opacity:0.5;fill:none;fill-rule:evenodd;stroke:#a61e4d;stroke-width:0.0533333;stroke-linecap:round;stroke-linejoin:round;stroke-miterlimit:100;stroke-dasharray:none;stroke-dashoffset:4.6"
       d="M 15.994632,-1.0573149 V 50.142685"
       id="path9" /><path
       style="opacity:0.5;fill:none;fill-rule:evenodd;stroke:#a61e4d;stroke-width:0.0533333;stroke-linecap:round;stroke-linejoin:round;stroke-miterlimit:100;stroke-dasharray:none;stroke-dashoffset:4.6"
       d="M 33.007965,-1.0573149 V 50.142685"
       id="path10" /><path
       style="opacity:0.5;fill:none;fill-rule:evenodd;stroke:#a61e4d;stroke-width:0.0533333;stroke-linecap:round;stroke-linejoin:round;stroke-miterlimit:100;stroke-dasharray:none;stroke-dashoffset:4.6"
       d="M -1.0987012,15.982685 H 50.101298"
       id="path11" /><path
       style="opacity:0.5;fill:none;fill-rule:evenodd;stroke:#a61e4d;stroke-width:0.0533333;stroke-linecap:round;stroke-linejoin:round;stroke-miterlimit:100;stroke-dasharray:none;stroke-dashoffset:4.6"
       d="M -1.0987012,33.049352 H 50.101298"
       id="path12" /></g><g
     inkscape:groupmode="layer"
     id="layer2"
     inkscape:label="icon"
     style="display:inline;opacity:1;stroke-width:1.09582"
     transform="matrix(0.90994876,0,0,0.9151602,1.3239269,1.269753)"><g
       id="g55"
       transform="matrix(0.15329862,0,0,0.13866349,4.5696442,3.8267885)"
       style="display:none;stroke-width:3.75805;stroke-dasharray:none"
       inkscape:label="BasePlate"><path
         d="M 74.553798,16.144899 -21.221255,26.995117 18.895186,52.899905 114.67239,42.049687 Z m -4.451659,2.940913 13.638302,8.807798 -32.563217,3.687879 -13.640449,-8.805664 z m -47.8886,5.425108 13.640449,8.807799 -32.565364,3.687879 -13.638302,-8.805664 z m 67.946821,7.527286 13.64045,8.807798 -32.565366,3.687879 -5.782434,-3.734831 -7.855868,-5.072967 z m -47.8886,5.425109 13.640449,8.807798 -32.565364,3.687879 -5.782434,-3.734831 -7.8558685,-5.072967 z"
         style="fill:#e9eef1;fill-rule:evenodd;stroke:none;stroke-width:3.75805;stroke-linecap:round;stroke-linejoin:round;stroke-dasharray:none"
         id="path44" /><path
         d="M 114.67239,42.049687 18.895186,52.899905 v 5.96079 L 114.67239,48.010478 Z"
         style="fill:#e9eef1;fill-rule:evenodd;stroke:none;stroke-width:3.75805;stroke-linecap:round;stroke-linejoin:round;stroke-dasharray:none"
         id="path43" /><path
         d="m 18.895186,58.860695 v -5.96079 L -21.221255,26.995117 v 5.962924 z"
         style="fill:#e9eef1;fill-rule:evenodd;stroke:none;stroke-width:3.75805;stroke-linecap:round;stroke-linejoin:round;stroke-dasharray:none"
         id="path42" /><path
         d="m 22.213539,24.51092 -32.563217,3.690014 7.8537215,5.070833 24.7094955,-2.800056 z"
         style="fill:#e9eef1;fill-rule:evenodd;stroke:none;stroke-width:3.75805;stroke-linecap:round;stroke-linejoin:round;stroke-dasharray:none"
         id="path53" /><path
         d="m 90.16036,32.038206 -32.563218,3.687879 7.855868,5.072967 24.70735,-2.800056 z"
         style="fill:#e9eef1;fill-rule:evenodd;stroke:none;stroke-width:3.75805;stroke-linecap:round;stroke-linejoin:round;stroke-dasharray:none"
         id="path48" /><path
         d="M 42.27176,37.463315 9.7085425,41.151194 17.564411,46.224161 42.27176,43.424105 Z"
         style="fill:#e9eef1;fill-rule:evenodd;stroke:none;stroke-width:3.75805;stroke-linecap:round;stroke-linejoin:round;stroke-dasharray:none"
         id="path45" /><path
         d="m 70.102139,19.085812 -32.565364,3.690013 7.855868,5.070833 24.709496,-2.800056 z"
         style="fill:#e9eef1;fill-rule:evenodd;stroke:none;stroke-width:3.75805;stroke-linecap:round;stroke-linejoin:round;stroke-dasharray:none"
         id="path52" /><path
         d="m 42.27176,37.463315 v 5.96079 l 5.786727,3.736965 7.853722,-0.889957 z"
         style="fill:#e9eef1;fill-rule:evenodd;stroke:none;stroke-width:3.75805;stroke-linecap:round;stroke-linejoin:round;stroke-dasharray:none"
         id="path46" /><path
         d="m 22.213539,24.51092 v 5.960791 l 5.784581,3.736965 7.855868,-0.889957 z"
         style="fill:#e9eef1;fill-rule:evenodd;stroke:none;stroke-width:3.75805;stroke-linecap:round;stroke-linejoin:round;stroke-dasharray:none"
         id="path55" /><path
         d="m 70.102139,19.085812 v 5.96079 l 5.78458,3.736965 7.853722,-0.889957 z"
         style="fill:#e9eef1;fill-rule:evenodd;stroke:none;stroke-width:3.75805;stroke-linecap:round;stroke-linejoin:round;stroke-dasharray:none"
         id="path50" /><path
         d="m 90.16036,32.038206 v 5.96079 l 5.78458,3.736965 7.85587,-0.889957 z"
         style="fill:#e9eef1;fill-rule:evenodd;stroke:none;stroke-width:3.75805;stroke-linecap:round;stroke-linejoin:round;stroke-dasharray:none"
         id="path49" /><path
         id="path56"
         style="font-variation-settings:normal;opacity:1;vector-effect:none;fill:url(#linearGradient77);fill-opacity:1;fill-rule:evenodd;stroke:#3a3b40;stroke-width:7.51609;stroke-linecap:round;stroke-linejoin:round;stroke-miterlimit:4;stroke-dasharray:none;stroke-dashoffset:0;stroke-opacity:1;-inkscape-stroke:none;stop-color:#000000;stop-opacity:1"
         d="m 74.552686,16.142107 -95.777353,10.85205 v 5.96176 l 40.123116,25.90755 95.777351,-10.85205 v -5.96176 z m -4.448295,8.90143 5.787839,3.7364 -24.718367,2.8023 -5.775201,-3.7364 z m -47.894995,5.42603 5.787838,3.7364 -24.7057294,2.8023 -5.7878384,-3.7364 z m 67.950235,7.52775 5.787838,3.7364 -24.70573,2.8023 -5.787838,-3.7364 z m -47.882358,5.42602 5.775201,3.7364 -24.70573,2.80231 -5.787838,-3.73641 z" /></g><g
       id="g70"
       transform="matrix(0.18291398,0,0,0.18075146,21.478671,24.97987)"
       style="display:none;stroke-width:6.02661"
       inkscape:label="Bin"><path
         d="m 3.7930309,-89.860278 -80.4539639,9.112988 v 39.742871 5.96079 l 32.565364,-3.690013 v -5.96079 l 15.323236,-1.735096 v 5.96079 l 32.5653639,-3.690013 v -5.96079 z"
         style="fill:#dee2e6;fill-rule:evenodd;stroke:#adb5bd;stroke-width:3.01335;stroke-linecap:round;stroke-linejoin:round;stroke-dasharray:none"
         id="path67" /><path
         d="m -29.905639,-111.62047 -80.451821,9.11512 33.696527,21.75806 80.4539639,-9.112988 z"
         style="fill:#e9eef1;fill-rule:evenodd;stroke:#adb5bd;stroke-width:3.01335;stroke-linecap:round;stroke-linejoin:round;stroke-dasharray:none"
         id="path68" /><path
         d="m -110.35746,-102.50535 v 39.740738 5.96079 l 13.638307,8.807799 v -5.96079 l 6.419918,4.144595 v 5.960791 l 13.638302,8.807798 v -5.96079 -39.742871 z"
         style="fill:#d1d5d9;fill-rule:evenodd;stroke:#adb5bd;stroke-width:3.01335;stroke-linecap:round;stroke-linejoin:round;stroke-dasharray:none"
         id="path66" /><path
         d="m -28.772333,-40.468738 v -5.96079 l -7.853722,0.889957 z"
         style="fill:#dee2e6;fill-rule:evenodd;stroke:#adb5bd;stroke-width:3.01335;stroke-linecap:round;stroke-linejoin:round;stroke-dasharray:none"
         id="path69" /><path
         d="m -90.299235,-48.723781 v -1.088437 l -6.419918,-4.144595 v 5.96079 z"
         style="fill:#dee2e6;fill-rule:evenodd;stroke:#adb5bd;stroke-width:3.01335;stroke-linecap:round;stroke-linejoin:round;stroke-dasharray:none"
         id="path70" /><path
         id="path71"
         style="fill:url(#linearGradient76);fill-opacity:1;fill-rule:evenodd;stroke:#3a3b40;stroke-width:6.02668;stroke-linecap:round;stroke-linejoin:round;stroke-dasharray:none"
         d="m -29.91029,-111.61677 -80.44339,9.11343 v 39.741192 5.961179 l 13.635354,8.801322 6.418466,-0.728241 v 4.879219 l 13.635351,8.801322 32.569306,-3.682822 v -5.961179 l 7.476113,-0.84268 7.8494,5.066482 32.5589373,-3.693226 v -5.961179 -39.741194 z" /></g><g
       id="g81"
       transform="matrix(0.18280107,0,0,0.1754674,13.726949,19.024975)"
       style="display:none;opacity:1;stroke-width:6.11859"
       inkscape:label="BinBase"><path
         d="m 12.466682,-63.001507 -80.451817,9.115122 33.698669,21.760193 80.451817,-9.115122 z"
         style="fill:#e9eef1;fill-rule:evenodd;stroke:#adb5bd;stroke-width:3.05932;stroke-linecap:round;stroke-linejoin:round;stroke-dasharray:none"
         id="path77" /><path
         d="m 46.165351,-41.241314 -80.451817,9.115122 v 5.96079 5.960791 l 32.5632178,-3.687879 v -5.962925 l 15.3232362,-1.735096 v 5.960791 l 32.565363,-3.687879 v -5.962925 z"
         style="fill:#dee2e6;fill-rule:evenodd;stroke:#adb5bd;stroke-width:3.05932;stroke-linecap:round;stroke-linejoin:round;stroke-dasharray:none"
         id="path78" /><path
         d="m -67.985135,-53.886385 v 5.96079 5.962925 l 13.638302,8.805665 v -5.960791 l 6.419919,4.144596 v 5.96079 l 13.640448,8.807799 v -5.960791 -5.96079 z"
         style="fill:#d1d5d9;fill-rule:evenodd;stroke:#adb5bd;stroke-width:3.05932;stroke-linecap:round;stroke-linejoin:round;stroke-dasharray:none"
         id="path79" /><path
         d="m 13.599988,-25.62972 v -5.960791 l -7.8537222,0.889957 z"
         style="fill:#d1d5d9;fill-rule:evenodd;stroke:#adb5bd;stroke-width:3.05932;stroke-linecap:round;stroke-linejoin:round;stroke-dasharray:none"
         id="path81" /><path
         d="m -47.926914,-33.88263 v -1.09057 l -6.419919,-4.144596 v 5.960791 z"
         style="fill:#dee2e6;fill-rule:evenodd;stroke:#adb5bd;stroke-width:3.05932;stroke-linecap:round;stroke-linejoin:round;stroke-dasharray:none"
         id="path80" /><path
         id="path82"
         style="font-variation-settings:normal;opacity:1;vector-effect:none;fill:url(#linearGradient86);fill-opacity:1;fill-rule:evenodd;stroke:#3a3b40;stroke-width:6.11864;stroke-linecap:round;stroke-linejoin:round;stroke-miterlimit:4;stroke-dasharray:none;stroke-dashoffset:0;stroke-opacity:1;-inkscape-stroke:none;stop-color:#000000;stop-opacity:1"
         d="m 12.462033,-62.999696 -80.443383,9.113774 v 5.955324 5.965959 l 13.63535,8.805372 6.418465,-0.723146 v 4.870604 l 13.64572,8.805373 32.5589358,-3.690174 v -5.955325 l 7.4761123,-0.840126 7.8493999,5.062026 32.558935,-3.690174 v -5.955325 -5.965959 z" /></g><g
       id="g92"
       transform="matrix(0.18291053,0,0,0.18074749,-1.0354355,37.378718)"
       style="display:none;stroke-width:6.02676"
       inkscape:label="SimpleStorage"><path
         d="m 93.182508,-180.21971 -80.453964,9.11512 33.69867,21.75806 80.453966,-9.11299 z m -1.113988,0.73629 32.09315,20.72298 -76.620468,8.67975 -32.093154,-20.72298 z"
         style="fill:#dee2e6;fill-rule:evenodd;stroke:#adb5bd;stroke-width:3.0134;stroke-linecap:round;stroke-linejoin:round;stroke-dasharray:none"
         id="path91" /><path
         d="m 92.06852,-179.48342 -76.620472,8.67975 32.093154,20.72298 44.527318,-5.04523 z"
         style="fill:#dee2e6;fill-rule:evenodd;stroke:#adb5bd;stroke-width:3.0134;stroke-linecap:round;stroke-linejoin:round;stroke-dasharray:none"
         id="path89" /><path
         d="m 92.06852,-179.48342 v 24.3575 l 32.09315,-3.63452 z"
         style="fill:#d1d5d9;fill-rule:evenodd;stroke:#adb5bd;stroke-width:3.0134;stroke-linecap:round;stroke-linejoin:round;stroke-dasharray:none"
         id="path90" /><path
         d="m 126.88118,-158.45952 -80.453966,9.11299 v 39.74287 5.96079 l 32.565364,-3.68788 v -5.96293 l 15.323235,-1.73509 v 5.96079 l 32.565367,-3.68788 v -5.96292 z"
         style="fill:#dee2e6;fill-rule:evenodd;stroke:#adb5bd;stroke-width:3.0134;stroke-linecap:round;stroke-linejoin:round;stroke-dasharray:none"
         id="path86" /><path
         d="m 12.728544,-171.10459 v 39.74074 5.96292 l 13.640449,8.80566 v -5.96079 l 6.419918,4.1446 v 0.002 5.95866 l 13.638303,8.8078 v -5.96079 -39.74287 z"
         style="fill:#d1d5d9;fill-rule:evenodd;stroke:#adb5bd;stroke-width:3.0134;stroke-linecap:round;stroke-linejoin:round;stroke-dasharray:none"
         id="path92" /><path
         d="m 94.315813,-109.06798 v -5.96079 l -7.853721,0.88996 z"
         style="fill:#d1d5d9;fill-rule:evenodd;stroke:#adb5bd;stroke-width:3.0134;stroke-linecap:round;stroke-linejoin:round;stroke-dasharray:none"
         id="path87" /><path
         d="m 32.788911,-117.32089 v -1.09057 l -6.419918,-4.1446 v 5.96079 z"
         style="fill:#dee2e6;fill-rule:evenodd;stroke:#adb5bd;stroke-width:3.0134;stroke-linecap:round;stroke-linejoin:round;stroke-dasharray:none"
         id="path88" /><path
         style="font-variation-settings:normal;opacity:1;vector-effect:none;fill:#228be6;fill-opacity:1;stroke:#adb5bd;stroke-width:0.547915;stroke-linecap:round;stroke-linejoin:round;stroke-miterlimit:4;stroke-dasharray:none;stroke-dashoffset:0;stroke-opacity:1;-inkscape-stroke:none"
         d="M 4.6936315,8.4692849 2.0065589,6.6445228 15.804866,4.9375405 18.642818,6.8586448 Z"
         id="path144"
         sodipodi:nodetypes="ccccc"
         transform="matrix(5.4671538,0,0,5.5325803,5.6608851,-206.80076)" /><path
         id="path93"
         style="font-variation-settings:normal;opacity:1;vector-effect:none;fill:url(#linearGradient99);fill-opacity:1;fill-rule:evenodd;stroke:#3a3b40;stroke-width:6.02681;stroke-linecap:round;stroke-linejoin:round;stroke-miterlimit:4;stroke-dasharray:none;stroke-dashoffset:0;stroke-opacity:1;-inkscape-stroke:none;stop-color:#000000;stop-opacity:1"
         d="m 93.187596,-180.21675 -80.455269,9.1136 v 39.74197 5.96129 l 13.635608,8.80149 6.418586,-0.71785 v 4.86891 l 13.635607,8.8015 32.569919,-3.6829 v -5.96129 l 7.476253,-0.8427 7.849548,5.06658 32.559552,-3.6933 v -5.96129 -39.74196 z" /></g><g
       id="g122"
       transform="matrix(0.97450924,0,0,0.97388081,0.29909607,0.30624724)"
       style="display:none;stroke-width:1.12485"
       inkscape:label="parts"><path
         d="m 8.7199216,5.5525442 -7.192811,0.806335 4.423927,2.827527 1.601851,1.0236848 1.241585,-0.139215 c -0.04936,-0.4019458 -0.07455,-0.8052828 -0.07455,-1.1950258 z"
         style="font-variation-settings:normal;opacity:1;vector-effect:none;fill:url(#linearGradient144);fill-opacity:1;fill-rule:evenodd;stroke:#adb5bd;stroke-width:0.562428;stroke-linecap:round;stroke-linejoin:round;stroke-miterlimit:4;stroke-dasharray:none;stroke-dashoffset:0;stroke-opacity:1;-inkscape-stroke:none;stop-color:#000000;stop-opacity:1"
         id="path122" /><path
         d="m 15.912733,4.7458122 -6.8333524,0.766276 4.4239284,2.827528 1.60185,1.023684 0.882126,-0.09876 c -0.04936,-0.401947 -0.07455,-0.80536 -0.07455,-1.195026 z"
         style="font-variation-settings:normal;opacity:1;vector-effect:none;fill:url(#linearGradient143);fill-opacity:1;fill-rule:evenodd;stroke:#adb5bd;stroke-width:0.562428;stroke-linecap:round;stroke-linejoin:round;stroke-miterlimit:4;stroke-dasharray:none;stroke-dashoffset:0;stroke-opacity:1;-inkscape-stroke:none;stop-color:#000000;stop-opacity:1"
         id="path121" /><path
         d="m 15.912733,4.7458122 v 3.323703 c 0,0.389666 0.02519,0.793079 0.07455,1.195026 l 5.950823,-0.667517 z"
         style="fill:#d1d5d9;fill-rule:evenodd;stroke:#adb5bd;stroke-width:0.562428;stroke-linecap:round;stroke-linejoin:round;stroke-dasharray:none"
         id="path120" /><path
         d="m 8.7199216,5.5525442 v 3.323306 c 0,0.389743 0.02519,0.79308 0.07455,1.1950258 L 14.745295,9.4037562 Z"
         style="fill:#d1d5d9;fill-rule:evenodd;stroke:#adb5bd;stroke-width:0.562428;stroke-linecap:round;stroke-linejoin:round;stroke-dasharray:none"
         id="path119" /><path
         d="M 16.121478,4.6093742 1.0169366,6.3029552 7.3437406,10.346926 22.448282,8.6529482 Z m -0.208745,0.136438 6.025375,3.851212 -6.832949,0.766276 -6.0257784,-3.851212 z M 8.7199216,5.5525442 14.745297,9.4037562 7.5528886,10.210091 1.5271106,6.3588792 Z"
         style="fill:#dee2e6;fill-rule:evenodd;stroke:#adb5bd;stroke-width:0.562428;stroke-linecap:round;stroke-linejoin:round;stroke-dasharray:none"
         id="path118" /><path
         d="m 4.7827956,16.298258 v -0.202674 l -1.204914,-0.769846 v 1.107769 z"
         style="fill:#dee2e6;fill-rule:evenodd;stroke:#adb5bd;stroke-width:0.562428;stroke-linecap:round;stroke-linejoin:round;stroke-dasharray:none"
         id="path117" /><path
         d="m 16.334655,17.832397 v -1.108165 l -1.474509,0.165392 z"
         style="fill:#d1d5d9;fill-rule:evenodd;stroke:#adb5bd;stroke-width:0.562428;stroke-linecap:round;stroke-linejoin:round;stroke-dasharray:none"
         id="path116" /><path
         d="M 22.448282,8.6529482 7.3437406,10.346926 v 7.385522 1.108166 l 6.1136284,-0.685762 v -1.107769 l 2.877286,-0.322455 v 1.107769 l 6.113627,-0.685761 v -1.107769 z"
         style="fill:#dee2e6;fill-rule:evenodd;stroke:#adb5bd;stroke-width:0.562428;stroke-linecap:round;stroke-linejoin:round;stroke-dasharray:none"
         id="path115" /><path
         d="m 1.0169366,6.3029552 v 7.3859188 1.107769 l 2.560945,1.636864 v -1.108165 l 1.204914,0.770242 v 1.108165 l 2.560945,1.636865 v -1.108166 -7.385522 z"
         style="fill:#d1d5d9;fill-rule:evenodd;stroke:#adb5bd;stroke-width:0.562428;stroke-linecap:round;stroke-linejoin:round;stroke-dasharray:none"
         id="path114" /><path
         id="path123"
         style="font-variation-settings:normal;display:inline;opacity:1;vector-effect:none;fill:url(#linearGradient131);fill-opacity:1;fill-rule:evenodd;stroke:#3a3b40;stroke-width:1.12486;stroke-linecap:round;stroke-linejoin:round;stroke-miterlimit:4;stroke-dasharray:none;stroke-dashoffset:0;stroke-opacity:1;-inkscape-stroke:none;stop-color:#000000;stop-opacity:1"
         d="M 16.122022,4.6096063 1.0177201,6.3020184 v 7.3864286 1.107644 l 2.5606696,1.636923 1.2041371,-0.134454 v 0.904897 l 2.5606696,1.636923 6.1151276,-0.685075 v -1.107644 l 1.401607,-0.15793 h 0.0021 l 1.472439,0.943312 6.112981,-0.687209 V 16.038189 8.6538948 Z" /></g><g
       id="g181"
       transform="matrix(0.11786044,0,0,0.11473186,15.48216,23.434703)"
       style="display:none;stroke-width:9.4236"
       inkscape:label="CustomBin"><path
         d="m 26.0625,-151.22852 -146.41602,16.68165 61.328129,39.826167 73.207032,-8.341797 -30.664063,-19.91211 73.208984,-8.3418 z"
         style="fill:#e9eef1;fill-rule:evenodd;stroke:#adb5bd;stroke-width:4.7118;stroke-linecap:round;stroke-linejoin:round;stroke-dasharray:none"
         id="path174" /><path
         d="m 14.181641,-103.0625 -73.207032,8.341797 v 36.369141 5.457031 l 29.63086,-3.376953 v -5.455078 l 13.945312,-1.587891 v 5.455078 l 29.63086,-3.376953 v -5.455078 -23.408203 z"
         style="fill:#dee2e6;fill-rule:evenodd;stroke:#adb5bd;stroke-width:4.7118;stroke-linecap:round;stroke-linejoin:round;stroke-dasharray:none"
         id="path175" /><path
         d="m 56.726562,-131.31641 -73.208984,8.3418 30.664063,19.91211 v 12.962891 l 12.912109,-1.470703 v 5.455078 l 29.632812,-3.375 v -5.455078 z"
         style="fill:#dee2e6;fill-rule:evenodd;stroke:#adb5bd;stroke-width:4.7118;stroke-linecap:round;stroke-linejoin:round;stroke-dasharray:none"
         id="path176" /><path
         d="m -120.35352,-134.54687 v 36.369136 5.455078 l 12.41211,8.060547 v -5.455078 l 5.83985,3.792968 v 5.455078 l 24.824216,16.121094 v -5.455078 l 5.839844,3.792969 v 5.455078 l 12.412109,8.060547 v -5.457031 -36.369141 z"
         style="fill:#d1d5d9;fill-rule:evenodd;stroke:#adb5bd;stroke-width:4.7118;stroke-linecap:round;stroke-linejoin:round;stroke-dasharray:none"
         id="path178" /><path
         d="m 27.09375,-86.115234 v -5.455078 l -7.146484,0.814453 z"
         style="fill:#dee2e6;fill-rule:evenodd;stroke:#adb5bd;stroke-width:4.7118;stroke-linecap:round;stroke-linejoin:round;stroke-dasharray:none"
         id="path177" /><path
         d="m -15.449219,-57.859375 v -5.457031 l -7.146484,0.814453 z"
         style="fill:#dee2e6;fill-rule:evenodd;stroke:#adb5bd;stroke-width:4.7118;stroke-linecap:round;stroke-linejoin:round;stroke-dasharray:none"
         id="path181" /><path
         d="m -71.4375,-65.414062 v -0.996094 l -5.839844,-3.792969 v 5.455078 z"
         style="fill:#dee2e6;fill-rule:evenodd;stroke:#adb5bd;stroke-width:4.7118;stroke-linecap:round;stroke-linejoin:round;stroke-dasharray:none"
         id="path180" /><path
         d="m -102.10156,-85.326172 v -0.998047 l -5.83985,-3.792968 v 5.455078 z"
         style="fill:#dee2e6;fill-rule:evenodd;stroke:#adb5bd;stroke-width:4.7118;stroke-linecap:round;stroke-linejoin:round;stroke-dasharray:none"
         id="path179" /><path
         id="path182"
         style="font-variation-settings:normal;display:inline;opacity:1;vector-effect:none;fill:url(#linearGradient189);fill-opacity:1;fill-rule:evenodd;stroke:#3a3b40;stroke-width:9.42362;stroke-linecap:round;stroke-linejoin:round;stroke-miterlimit:4;stroke-dasharray:none;stroke-dashoffset:0;stroke-opacity:1;-inkscape-stroke:none;stop-color:#000000;stop-opacity:1"
         d="m 26.065714,-151.23594 -146.419234,16.69673 v 36.353407 5.462005 l 12.41877,8.062182 5.83939,-0.670486 v 4.464453 l 24.821459,16.124362 5.839396,-0.670485 v 4.464453 l 12.402684,8.062181 29.631316,-3.385135 v -5.462005 l 6.804586,-0.768605 7.142401,4.644339 29.631316,-3.385135 v -5.445651 -23.417938 l 5.77505,-0.654133 7.142402,4.64434 29.631315,-3.368781 v -5.462006 -36.369762 z" /></g><g
       id="g192"
       transform="matrix(0.09010301,0,0,0.08561488,5.8084149,20.016887)"
       style="display:none;stroke-width:12.4765"
       inkscape:label="CustomBase"><path
         d="M 124.54588,-74.107828 28.768682,-63.25761 v 5.962925 l 95.777198,-10.850218 z"
         style="display:inline;fill:#e9eef1;fill-rule:evenodd;stroke:none;stroke-width:6.23834;stroke-linecap:round;stroke-linejoin:round;stroke-dasharray:none"
         id="path190" /><path
         d="m 180.20449,-110.8607 -95.777197,10.85022 7.853722,5.070832 87.923475,-9.960262 z"
         style="display:inline;fill:#e9eef1;fill-rule:evenodd;stroke:none;stroke-width:6.23834;stroke-linecap:round;stroke-linejoin:round;stroke-dasharray:none"
         id="path191" /><path
         d="m 28.768682,-57.294685 v -5.962925 l -80.23503,-51.80744 v 5.96079 z"
         style="display:inline;fill:#e9eef1;fill-rule:evenodd;stroke:none;stroke-width:6.23834;stroke-linecap:round;stroke-linejoin:round;stroke-dasharray:none"
         id="path189" /><path
         d="m 140.08805,-136.76549 -191.554398,21.70044 80.23503,51.80744 95.777198,-10.850218 -40.118587,-25.902652 95.777197,-10.85022 z m -4.4538,8.90171 5.78672,3.73696 -24.71164,2.79792 -5.78243,-3.73483 z m -47.888604,5.4251 5.786727,3.73697 -24.709496,2.79792 -5.78458,-3.73483 z m -47.8886,5.42511 5.786727,3.73697 -24.709495,2.79792 -5.784581,-3.73483 z m 115.835424,2.10218 5.78672,3.73483 7.85373,-0.88782 -32.56322,3.68788 -5.78673,-3.73697 z m -163.7240232,3.32293 5.7867269,3.73697 -24.7094957,2.79792 -5.784581,-3.73483 z m 115.8354232,2.10218 5.78672,3.73483 -24.709492,2.80006 -5.78458,-3.73484 z m -47.888603,5.42511 5.786727,3.73483 -24.709496,2.800055 -5.78458,-3.734835 z m -47.886453,5.425106 5.78458,3.734831 -24.7094952,2.800056 -5.7845808,-3.734831 z m 67.94682,7.527285 5.784581,3.734832 -24.709496,2.800056 -5.78458,-3.736966 z m -47.888599,5.425109 5.78458,3.734831 -24.709495,2.800057 -5.784581,-3.736966 z m 67.946825,7.527286 5.78458,3.734831 -24.7095,2.800056 -5.784581,-3.736965 z m -47.888604,5.425109 5.78458,3.734831 -24.709496,2.800056 -5.78458,-3.736965 z"
         style="display:inline;fill:#e9eef1;fill-rule:evenodd;stroke:none;stroke-width:6.23834;stroke-linecap:round;stroke-linejoin:round;stroke-dasharray:none"
         id="path192" /><path
         id="path193"
         style="font-variation-settings:normal;display:inline;opacity:1;vector-effect:none;fill:url(#linearGradient196);fill-opacity:1;fill-rule:evenodd;stroke:#3a3b40;stroke-width:12.4766;stroke-linecap:round;stroke-linejoin:round;stroke-miterlimit:4;stroke-dasharray:none;stroke-dashoffset:0;stroke-opacity:1;-inkscape-stroke:none;stop-color:#000000;stop-opacity:1"
         d="m 141.46646,-141.7682 -191.545067,21.68245 v 16.3536 l 80.220807,51.798188 95.79358,-10.830332 v -5.970848 l -32.260889,-20.832591 87.901969,-9.95868 V -115.88 Z m -5.84145,13.90325 5.78718,3.74813 -24.70599,2.7893 -5.78717,-3.72633 z m -47.87574,5.42607 5.787177,3.72633 -24.705988,2.81109 -5.787178,-3.72633 z m -47.896789,5.42606 5.787178,3.72633 -24.705988,2.81109 -5.787178,-3.74812 z m 115.848779,2.09197 5.78718,3.74813 -24.72704,2.7893 -5.78717,-3.72633 z m -163.7245225,3.33409 5.7871779,3.72633 -24.7270324,2.81109 -5.766134,-3.74812 z m 115.8277325,2.09198 5.78718,3.74812 -24.705989,2.7893 -5.787178,-3.72633 z m -47.896787,5.42606 5.787178,3.74812 -24.705988,2.789303 -5.787178,-3.726333 z m -47.875744,5.42606 5.787178,3.748124 -24.7059882,2.789301 -5.7871778,-3.726332 z m 67.95199,7.53983 5.766134,3.726331 -24.705989,2.811093 -5.787177,-3.748123 z m -47.896788,5.426062 5.787178,3.726331 -24.705988,2.811093 -5.7871783,-3.748123 z m 67.951349,7.518037 5.78718,3.726332 -24.727031,2.811093 -5.766133,-3.726332 z m -47.896147,5.426062 5.787178,3.726332 -24.705989,2.811093 -5.787178,-3.748124 z"
         sodipodi:nodetypes="cccccccccccccccccccccccccccccccccccccccccccccccccccccccccccccccccccccc" /></g><g
       id="g201"
       inkscape:label="label"
       style="display:none;opacity:1;stroke-width:6.02676"
       transform="matrix(0.18291053,0,0,0.18074749,-1.0354355,37.378718)"><rect
         style="font-variation-settings:normal;opacity:1;fill:#e9eef1;fill-opacity:1;stroke:#3a3b40;stroke-width:6.02681;stroke-linecap:round;stroke-linejoin:round;stroke-miterlimit:4;stroke-dasharray:none;stroke-dashoffset:0;stroke-opacity:1"
         id="rect145"
         width="54.209148"
         height="24.36932"
         x="72.741486"
         y="-108.68987" /><path
         id="path147"
         style="fill:#1971c2;stroke:none;stroke-width:6.02676;stroke-linecap:square;stroke-linejoin:round"
         d="m 81.870846,-103.59922 v 2.80258 h 1.392644 1.425283 v 8.593809 H 83.26349 81.870846 v 2.791621 h 1.392644 5.646735 1.392644 v -2.791621 H 88.910225 87.48494 v -8.593809 h 1.425285 1.392644 v -2.80258 H 88.910225 83.26349 Z" /><rect
         style="font-variation-settings:normal;opacity:1;fill:#1971c2;fill-opacity:1;stroke:none;stroke-width:3.0134;stroke-linecap:square;stroke-linejoin:round;stroke-miterlimit:4;stroke-dasharray:none;stroke-dashoffset:0;stroke-opacity:1"
         id="rect152"
         width="4.0057621"
         height="3.1669121"
         x="100.54868"
         y="-95.150932" /><rect
         style="font-variation-settings:normal;opacity:1;fill:#1971c2;fill-opacity:1;stroke:none;stroke-width:3.0134;stroke-linecap:square;stroke-linejoin:round;stroke-miterlimit:4;stroke-dasharray:none;stroke-dashoffset:0;stroke-opacity:1"
         id="rect153"
         width="4.0057621"
         height="3.1669121"
         x="107.2067"
         y="-95.150932" /><rect
         style="font-variation-settings:normal;display:inline;opacity:1;fill:#1971c2;fill-opacity:1;stroke:none;stroke-width:3.0134;stroke-linecap:square;stroke-linejoin:round;stroke-miterlimit:4;stroke-dasharray:none;stroke-dashoffset:0;stroke-opacity:1"
         id="rect154"
         width="4.0057621"
         height="3.1669121"
         x="113.8647"
         y="-95.150932" /></g><g
       id="g101"
       inkscape:label="eco"
       style="display:none;opacity:1;stroke-width:1.09582"><path
         d="m 21.954819,11.724993 c -1.634685,0 -5.575779,0.261244 -7.940439,2.612437 -1.524915,1.51623 -1.659964,3.88556 -0.415071,5.558665 l -1.8667,1.856071 0.905027,0.899875 1.866701,-1.856071 c 0.756217,0.556218 1.652285,0.839416 2.550271,0.839416 1.100244,0 2.200806,-0.417481 3.04023,-1.252123 3.040231,-3.022919 2.605958,-8.636951 2.605958,-8.636951 0,0 -0.278742,-0.02132 -0.745977,-0.02132 z"
         id="path100"
         style="display:inline;fill:#67e076;stroke:none;stroke-width:2.19166;stroke-dasharray:none"
         sodipodi:nodetypes="ssccccsscs" /><path
         d="m 21.954819,11.724993 c -1.634685,0 -5.575779,0.261244 -7.940439,2.612437 -1.524915,1.51623 -1.659964,3.88556 -0.415071,5.558665 l -1.8667,1.856071 0.905027,0.899875 1.866701,-1.856071 c 0.756217,0.556218 1.652285,0.839416 2.550271,0.839416 1.100244,0 2.200806,-0.417481 3.04023,-1.252123 3.040231,-3.022919 2.605958,-8.636951 2.605958,-8.636951 0,0 -0.278742,-0.02132 -0.745977,-0.02132 z"
         id="path99"
         style="display:inline;fill:none;stroke:#3a3b40;stroke-width:1.09583;stroke-linecap:round;stroke-linejoin:round;stroke-dasharray:none"
         sodipodi:nodetypes="ssccccsscs" /><path
         style="font-variation-settings:normal;opacity:1;fill:none;fill-opacity:1;stroke:#37b24d;stroke-width:1.09583;stroke-linecap:round;stroke-linejoin:round;stroke-miterlimit:4;stroke-dasharray:none;stroke-dashoffset:0;stroke-opacity:1"
         d="m 15.029498,19.373927 c 0,0 1.098963,-2.18541 5.494815,-5.463524"
         id="path101"
         sodipodi:nodetypes="cc" /></g><g
       id="g113"
       inkscape:label="magnet"
       style="display:none;opacity:1;stroke-width:1.09582"><path
         style="fill:url(#linearGradient108);fill-opacity:1;stroke:#3a3b40;stroke-width:1.09583;stroke-linecap:round;stroke-linejoin:round"
         d="m 10.075579,12.269211 v 3.773247 c 0,3.360331 2.778155,6.054694 6.052882,6.054694 3.274727,0 6.052882,-2.694364 6.052882,-6.054694 v -3.773247 h -4.490294 v 3.773247 c 0,0.792215 -0.632028,1.466188 -1.562588,1.466188 -0.930561,0 -1.562588,-0.673971 -1.562588,-1.466188 v -3.773247 z"
         id="path113" /><path
         style="fill:#228be6;fill-opacity:1;stroke:#3a3b40;stroke-width:1.09583;stroke-linecap:round;stroke-linejoin:round"
         d="m 17.691049,9.5395833 v 2.7296277 h 4.490294 V 9.5395833 Z"
         id="path112" /><path
         style="fill:#fa5252;fill-opacity:1;stroke:#3a3b40;stroke-width:1.09583;stroke-linecap:round;stroke-linejoin:round"
         d="m 10.075579,9.5395833 v 2.7296277 h 4.490294 V 9.5395833 Z"
         id="path106" /></g><g
       id="g1391"
       transform="matrix(0.51200572,0,0,0.50909008,-8.8744285,-8.8326473)"
       style="display:none;opacity:1;stroke-width:2.14637"
       inkscape:label="screw"><path
         style="fill:#ffe066;fill-rule:evenodd;stroke:none;stroke-width:2.14637px;stroke-linecap:butt;stroke-linejoin:miter;stroke-opacity:1"
         d="m 48.12664,45.344091 -10.483371,9.998753 -0.08017,4.764398 4.613683,0.141473 12.893591,-12.695005 5.371956,0.584017 -10.101915,-10.556769 0.06447,4.444551 z"
         id="path1388" /><g
         style="fill:none;stroke-width:1.12822;stroke-dasharray:none"
         id="g1388"
         transform="matrix(3.8049325,0,0,3.8049325,-229.7868,195.13897)"><path
           fill-rule="evenodd"
           clip-rule="evenodd"
           d="m 73.415939,-41.785083 c 0.114986,-0.04762 0.247325,-0.0213 0.335325,0.0667 l 2.769246,2.769239 c 0.088,0.088 0.114339,0.22034 0.06671,0.335325 -0.04763,0.114985 -0.159816,0.189939 -0.284278,0.189939 h -1.411024 l -3.204385,3.20439 c -0.115407,0.115416 -0.271934,0.180247 -0.435145,0.180247 h -0.795631 c -0.33987,0 -0.615388,-0.275509 -0.615388,-0.615388 v -0.795635 c 0,-0.1632 0.06483,-0.319725 0.180244,-0.43514 1.068141,-1.068129 2.136254,-2.136258 3.204389,-3.204381 v -1.411019 c 0,-0.124451 0.07495,-0.236648 0.189939,-0.284272 z m -0.65148,3.027108 -0.334088,0.334093 0.795629,0.795636 0.334094,-0.334094 z m 1.230776,0.360494 -0.795635,-0.795638 0.334094,-0.334079 0.795635,0.795623 z m -1.204375,1.204375 -0.795636,-0.795634 -0.334087,0.334094 0.795628,0.795635 z m -0.769238,0.769235 -0.795629,-0.795635 -0.334092,0.334095 0.79563,0.795634 z m -0.769236,0.769235 -0.795631,-0.795635 v 0.795635 z m 2.589002,-5.103338 v 0.668182 l 1.050528,1.050523 h 0.668189 z"
           fill="#0f0f0f"
           id="path1"
           style="fill:#3a3b40;stroke:none;stroke-width:0.564107;stroke-dasharray:none;stroke-opacity:1" /></g></g><g
       id="g200"
       inkscape:label="pen"
       style="display:none"><path
         id="path197"
         style="font-variation-settings:normal;opacity:1;vector-effect:none;fill:#ffe066;fill-opacity:1;stroke:none;stroke-width:1.09583;stroke-linecap:round;stroke-linejoin:round;stroke-miterlimit:4;stroke-dasharray:none;stroke-dashoffset:0;stroke-opacity:1;-inkscape-stroke:none"
         d="m 19.763168,12.588735 -9.404893,5.398996 -2.3365142,4.112072 4.7498102,0.04407 9.404892,-5.398996 z" /><path
         id="path198"
         style="font-variation-settings:normal;opacity:1;vector-effect:none;fill:#45adfc;fill-opacity:1;stroke:none;stroke-width:1.09583;stroke-linecap:round;stroke-linejoin:round;stroke-miterlimit:4;stroke-dasharray:none;stroke-dashoffset:0;stroke-opacity:1;-inkscape-stroke:none"
         d="m 19.762122,12.589335 -9.236161,5.302137 2.413294,4.15614 9.236164,-5.302128 z"
         sodipodi:nodetypes="ccccc" /><path
         style="font-variation-settings:normal;opacity:1;vector-effect:none;fill:none;fill-opacity:1;stroke:#228be6;stroke-width:1.09583;stroke-linecap:round;stroke-linejoin:round;stroke-miterlimit:4;stroke-dasharray:none;stroke-dashoffset:0;stroke-opacity:1;-inkscape-stroke:none"
         d="m 11.732609,19.969543 9.237207,-5.302734"
         id="path199"
         sodipodi:nodetypes="cc" /><path
         style="font-variation-settings:normal;opacity:1;vector-effect:none;fill:none;fill-opacity:1;stroke:#228be6;stroke-width:1.09583;stroke-linecap:round;stroke-linejoin:round;stroke-miterlimit:4;stroke-dasharray:none;stroke-dashoffset:0;stroke-opacity:1;-inkscape-stroke:none"
         d="m 10.525961,17.891472 2.413296,4.156143"
         id="path200" /><path
         id="rect196"
         style="font-variation-settings:normal;opacity:1;vector-effect:none;fill:none;fill-opacity:1;stroke:#3a3b40;stroke-width:1.09583;stroke-linecap:round;stroke-linejoin:round;stroke-miterlimit:4;stroke-dasharray:none;stroke-dashoffset:0;stroke-opacity:1;-inkscape-stroke:none"
         d="m 19.763168,12.588735 -9.404893,5.398996 -2.3365142,4.112072 4.7498102,0.04407 9.404892,-5.398996 z" /></g><g
       id="g208"
       inkscape:label="Gridfinity"><g
         id="g206"
         transform="matrix(0.18280107,0,0,0.1754674,13.726949,25.62755)"
         style="display:inline;opacity:1;stroke-width:6.11859"
         inkscape:label="BinBase"><path
           d="m 12.466682,-63.001507 -80.451817,9.115122 33.698669,21.760193 80.451817,-9.115122 z"
           style="fill:#e9eef1;fill-rule:evenodd;stroke:#adb5bd;stroke-width:3.05932;stroke-linecap:round;stroke-linejoin:round;stroke-dasharray:none"
           id="path201" /><path
           d="m 46.165351,-41.241314 -80.451817,9.115122 v 5.96079 5.960791 l 32.5632178,-3.687879 v -5.962925 l 15.3232362,-1.735096 v 5.960791 l 32.565363,-3.687879 v -5.962925 z"
           style="fill:#dee2e6;fill-rule:evenodd;stroke:#adb5bd;stroke-width:3.05932;stroke-linecap:round;stroke-linejoin:round;stroke-dasharray:none"
           id="path202" /><path
           d="m -67.985135,-53.886385 v 5.96079 5.962925 l 13.638302,8.805665 v -5.960791 l 6.419919,4.144596 v 5.96079 l 13.640448,8.807799 v -5.960791 -5.96079 z"
           style="fill:#d1d5d9;fill-rule:evenodd;stroke:#adb5bd;stroke-width:3.05932;stroke-linecap:round;stroke-linejoin:round;stroke-dasharray:none"
           id="path203" /><path
           d="m 13.599988,-25.62972 v -5.960791 l -7.8537222,0.889957 z"
           style="fill:#d1d5d9;fill-rule:evenodd;stroke:#adb5bd;stroke-width:3.05932;stroke-linecap:round;stroke-linejoin:round;stroke-dasharray:none"
           id="path204" /><path
           d="m -47.926914,-33.88263 v -1.09057 l -6.419919,-4.144596 v 5.960791 z"
           style="fill:#dee2e6;fill-rule:evenodd;stroke:#adb5bd;stroke-width:3.05932;stroke-linecap:round;stroke-linejoin:round;stroke-dasharray:none"
           id="path205" /><path
           id="path206"
           style="font-variation-settings:normal;opacity:1;vector-effect:none;fill:url(#linearGradient206);fill-opacity:1;fill-rule:evenodd;stroke:#3a3b40;stroke-width:6.11864;stroke-linecap:round;stroke-linejoin:round;stroke-miterlimit:4;stroke-dasharray:none;stroke-dashoffset:0;stroke-opacity:1;-inkscape-stroke:none;stop-color:#000000;stop-opacity:1"
           d="m 12.462033,-62.999696 -80.443383,9.113774 v 5.955324 5.965959 l 13.63535,8.805372 6.418465,-0.723146 v 4.870604 l 13.64572,8.805373 32.5589358,-3.690174 v -5.955325 l 7.4761123,-0.840126 7.8493999,5.062026 32.558935,-3.690174 v -5.955325 -5.965959 z" /></g><g
         id="g207"
         transform="translate(-3.6732733e-4)"><path
           d="m 12.144531,0.80078125 c -2.6718335,0 -4.9408179,0.84706805 -6.6621091,2.56835935 -1.6517562,1.6517561 -2.4667969,3.7263375 -2.4667969,6.171875 0,2.4334194 0.7731824,4.4656744 2.3710937,6.0156254 1.645526,1.61388 3.8294667,2.398437 6.4101563,2.398437 2.385296,0 4.418131,-0.664324 5.998047,-2.052734 1.747691,-1.537321 2.578125,-3.682163 2.578125,-6.3203127 V 9.0097656 c 0,-0.1737941 -0.0096,-0.3818246 -0.03711,-0.546875 L 20.183594,7.546875 H 10.128906 v 3.990234 h 5.716797 c -0.179228,0.557849 -0.482602,0.987443 -0.914062,1.355469 -0.732088,0.617045 -1.68468,0.949219 -3.033203,0.949219 -1.514717,0 -2.5502058,-0.40958 -3.3535161,-1.212891 C 7.7776218,11.861606 7.3945313,10.900939 7.3945312,9.5 7.3945313,8.0339367 7.802234,7.0122191 8.6269531,6.1875 9.4728629,5.3415903 10.555285,4.9140625 12.123047,4.9140625 c 1.731525,0 3.295894,0.5559831 4.822265,1.75 l 0.298829,0.2324219 h 1.49414 V 3.09375 L 18.335937,2.7636719 C 16.696276,1.4264725 14.610409,0.80078125 12.144531,0.80078125 Z"
           id="path207"
           style="font-size:20.4394px;font-family:'Decimal Book';-inkscape-font-specification:'Decimal Book, Normal';font-variant-ligatures:no-common-ligatures;fill:#3a3b40;stroke:none;stroke-width:1.09583;stroke-linecap:round;stroke-linejoin:round"
           transform="scale(1.0033042,0.99670667)"
           aria-label="G" /><path
           d="m 6.1548926,14.773718 q -2.04394,-1.982622 -2.04394,-5.2324866 0,-3.2498646 2.146137,-5.3960015 2.2483339,-2.248334 5.8865474,-2.248334 3.39294,0 5.498198,1.7169096 v 2.1870157 h -0.02044 Q 15.08691,3.8181995 12.123197,3.8181995 q -2.6775611,0 -4.2718343,1.5942731 -1.5533943,1.5533944 -1.5533943,4.08788 0,2.4322884 1.4716367,3.9039254 1.532955,1.532955 4.1287589,1.532955 2.309652,0 3.74041,-1.205925 1.389879,-1.185485 1.492076,-3.290743 H 11.223864 V 8.6418978 h 8.032684 q 0.02044,0.1226364 0.02044,0.3679092 0,0.2248334 0,0.5723032 0,3.5564558 -2.207455,5.4981988 -2.023501,1.778227 -5.273365,1.778227 -3.5155769,0 -5.6412744,-2.084818 z"
           id="text201"
           style="font-size:20.4394px;font-family:'Decimal Book';-inkscape-font-specification:'Decimal Book, Normal';font-variant-ligatures:no-common-ligatures;fill:#e03131;stroke-width:1.09583;stroke-linecap:round;stroke-linejoin:round"
           transform="scale(1.0033042,0.99670667)"
           aria-label="G" /></g></g></g></svg>
